<?xml version="1.0" encoding="UTF-8"?>
<svg id="Layer_1" data-name="Layer 1" xmlns="http://www.w3.org/2000/svg" xmlns:xlink="http://www.w3.org/1999/xlink" viewBox="0 0 100.31 100">
  <defs>
    <style>
      .cls-1 {
        fill: url(#linear-gradient);
      }

      .cls-1, .cls-2, .cls-3, .cls-4, .cls-5, .cls-6, .cls-7, .cls-8, .cls-9 {
        stroke-width: 0px;
      }

      .cls-2 {
        fill: url(#linear-gradient-4);
      }

      .cls-3 {
        fill: url(#linear-gradient-2);
      }

      .cls-4 {
        fill: url(#linear-gradient-3);
      }

      .cls-5 {
        fill: url(#linear-gradient-8);
      }

      .cls-6 {
        fill: url(#linear-gradient-9);
      }

      .cls-7 {
        fill: url(#linear-gradient-7);
      }

      .cls-8 {
        fill: url(#linear-gradient-5);
      }

      .cls-9 {
        fill: url(#linear-gradient-6);
      }
    </style>
    <linearGradient id="linear-gradient" x1="4.1" y1="3.79" x2="21.85" y2="21.53" gradientUnits="userSpaceOnUse">
      <stop offset="0" stop-color="#09bcef"/>
      <stop offset="1" stop-color="#0fe4a2"/>
    </linearGradient>
    <linearGradient id="linear-gradient-2" x1="78.75" y1="78.44" x2="96.51" y2="96.2" xlink:href="#linear-gradient"/>
    <linearGradient id="linear-gradient-3" x1="78.77" y1="3.78" x2="96.53" y2="21.54" xlink:href="#linear-gradient"/>
    <linearGradient id="linear-gradient-4" x1="4.09" y1="78.45" x2="21.85" y2="96.21" xlink:href="#linear-gradient"/>
    <linearGradient id="linear-gradient-5" x1="41.47" y1="3.71" x2="59.14" y2="21.37" xlink:href="#linear-gradient"/>
    <linearGradient id="linear-gradient-6" x1="3.76" y1="41.01" x2="21.73" y2="58.98" xlink:href="#linear-gradient"/>
    <linearGradient id="linear-gradient-7" x1="78.69" y1="41.09" x2="96.57" y2="58.97" xlink:href="#linear-gradient"/>
    <linearGradient id="linear-gradient-8" x1="41.33" y1="78.42" x2="59.2" y2="96.3" xlink:href="#linear-gradient"/>
    <linearGradient id="linear-gradient-9" x1="41.38" y1="41.07" x2="59.2" y2="58.88" xlink:href="#linear-gradient"/>
  </defs>
  <path class="cls-1" d="M13.13,0c6.93.19,12.45,5.87,12.44,12.81-.16,6.94-5.84,12.48-12.78,12.45C5.86,25.09.32,19.42.31,12.48.56,5.56,6.21.06,13.13,0h0Z"/>
  <path class="cls-3" d="M100.31,87.48c-.25,6.91-5.88,12.42-12.8,12.52-6.93-.18-12.46-5.86-12.46-12.8.09-6.95,5.78-12.52,12.73-12.46,6.94.15,12.5,5.8,12.53,12.74h0Z"/>
  <path class="cls-4" d="M87.46,25.26c-6.94-.16-12.46-5.86-12.41-12.8C75.23,5.53,80.91,0,87.84,0c6.93.25,12.43,5.91,12.47,12.84-.22,6.93-5.91,12.43-12.85,12.42Z"/>
  <path class="cls-2" d="M25.58,87.36c-.11,6.93-5.7,12.53-12.63,12.64-6.93-.16-12.5-5.75-12.63-12.68.11-6.94,5.74-12.52,12.68-12.58,6.94.07,12.54,5.68,12.58,12.62Z"/>
  <path class="cls-8" d="M50.31,0c6.93.14,12.51,5.74,12.64,12.67-.19,6.84-5.79,12.28-12.64,12.28s-12.44-5.45-12.63-12.28C37.75,5.72,43.36.09,50.31,0Z"/>
  <path class="cls-9" d="M25.59,50.16c-.2,6.93-5.85,12.45-12.78,12.48-3.41.05-6.69-1.29-9.1-3.7C1.3,56.54-.04,53.26,0,49.85c.04-3.41,1.46-6.66,3.93-9,2.47-2.35,5.78-3.61,9.19-3.48,6.94.17,12.48,5.85,12.48,12.79h0Z"/>
  <path class="cls-7" d="M87.7,37.35c6.91.17,12.46,5.74,12.61,12.65,0,5.11-3.09,9.72-7.82,11.67-4.73,1.95-10.16.86-13.78-2.76-3.61-3.62-4.68-9.06-2.71-13.78,1.97-4.72,6.59-7.79,11.7-7.78h0Z"/>
  <path class="cls-5" d="M50.31,100c-6.98.03-12.66-5.61-12.69-12.59-.03-6.98,5.61-12.66,12.59-12.69,6.98-.03,12.66,5.61,12.69,12.59.03,6.98-5.61,12.66-12.59,12.69Z"/>
  <path class="cls-6" d="M50.2,62.63c-5.11-.04-9.68-3.16-11.6-7.89-1.91-4.73-.79-10.16,2.86-13.74,3.64-3.58,9.08-4.62,13.78-2.62,4.7,1.99,7.74,6.62,7.7,11.73-.14,6.94-5.8,12.5-12.74,12.53h0Z"/>
</svg>