<?xml version="1.0" encoding="UTF-8"?>
<svg id="Layer_2" data-name="Layer 2" xmlns="http://www.w3.org/2000/svg" viewBox="0 0 100 100">
  <defs>
    <style>
      .cls-1 {
        stroke-width: 0px;
      }
    </style>
  </defs>
  <path class="cls-1" d="M15.55,47.18l7.59,6.81-5.31,8.74q-.94,1.7.97,2.14l10.01,2.05-.28,10.22q-.07,1.9,1.87,1.43l9.72-3.19,4.91,8.94q.94,1.54,2.24.26l6.81-7.59,8.74,5.31q1.73.81,2.14-.97l2.05-10.01,10.22.28q1.96-.06,1.43-1.87l-3.19-9.72,8.94-4.91q1.55-.85.26-2.24l-7.59-6.81,5.31-8.74q1.07-1.73-.97-2.14l-10.01-2.05.28-10.22q.02-2.12-1.87-1.43l-9.72,3.19-5-8.87c-.82-1.68-1.1-1.68-2.25-.26l-6.81,7.59-8.74-5.31q-1.74-1.14-2.14.97l-2.05,10.01-10.22-.28q-2.01,0-1.43,1.87l3.19,9.72-8.85,4.84q-1.85.88-.26,2.24ZM51.22,65.84c-.89.71-1.99,1.07-3.12.94s-2.11-.73-2.82-1.63-.98-2.06-.84-3.27c.13-1.12.74-2.19,1.56-2.99,1.7-1.35,4.59-1.02,5.94.68.71.89.98,2.06.84,3.27s-.67,2.28-1.56,2.99ZM47.28,36.17c.28-2.41,2.35-3.2,4.68-2.93s3.95,1.4,3.67,3.89l-1.57,15.64c-.28,2.41-2.35,3.2-4.68,2.93s-3.95-1.4-3.67-3.89l1.57-15.64Z"/>
</svg>