<?xml version="1.0" encoding="UTF-8"?>
<svg width="100pt" height="100pt" version="1.1" viewBox="0 0 100 100" xmlns="http://www.w3.org/2000/svg">
 <path d="m58.332 70.832c-0.019531-2.3398-1.8945-4.1641-4.2031-4.1641h-8.2578c-2.3438 0-4.1836 1.8594-4.2031 4.1641v-16.664h16.664zm-11.273-63.723c1.625-1.625 4.2773-1.6055 5.8828 0l41.176 41.176c3.25 3.2461 2.1445 5.8828-2.4727 5.8828h-83.289c-4.6172 0-5.7383-2.6172-2.4727-5.8828zm-34.559 47.059h29.168v37.52c0 2.2891-1.8242 4.1445-4.1797 4.1445h-20.809c-2.3086 0-4.1797-1.8984-4.1797-4.1445zm45.832 0h29.168v37.52c0 2.2891-1.8242 4.1445-4.1797 4.1445h-20.809c-2.3086 0-4.1797-1.8984-4.1797-4.1445z" fill-rule="evenodd"/>
</svg>
