<svg xmlns="http://www.w3.org/2000/svg" xmlns:xlink="http://www.w3.org/1999/xlink" width="116.956" height="178.016" viewBox="0 0 116.956 178.016">
  <defs>
    <linearGradient id="linear-gradient" x1="0.381" y1="0.043" x2="0.5" y2="1" gradientUnits="objectBoundingBox">
      <stop offset="0" stop-color="#0abcef"/>
      <stop offset="0.227" stop-color="#0abeeb"/>
      <stop offset="1" stop-color="#0de4a2"/>
    </linearGradient>
  </defs>
  <path id="icon_tasks" d="M271.816,33.277a.338.338,0,0,0-.055,0l-17.921.082-.006.006a3.963,3.963,0,0,0-2.761.7,3.567,3.567,0,0,0-.706,2.6v9.619a3.563,3.563,0,0,0,.706,2.6,3.959,3.959,0,0,0,2.761.7l.006.006,43.717.2V49.8a3.709,3.709,0,0,0,2.731-.773,3.893,3.893,0,0,0,.733-2.734V36.674a3.9,3.9,0,0,0-.733-2.734,3.707,3.707,0,0,0-2.731-.773v-.006l-17.573.07a1.2,1.2,0,0,1-.26-.027c-.049.055-.1.107-.153.159a5.429,5.429,0,0,1-7.673,0c-.027-.027-.055-.055-.082-.085ZM246.152,143.335a1.223,1.223,0,0,1-1.729,1.729l-3.662-3.662-3.662,3.662a1.222,1.222,0,0,1-1.729-1.729l3.662-3.662-3.662-3.662a1.222,1.222,0,0,1,1.729-1.729l3.662,3.662,3.662-3.662a1.223,1.223,0,0,1,1.729,1.729l-3.662,3.662ZM233.683,95.428a1.219,1.219,0,1,1,2.2-1.06l3.9,8.064,12.564-19.509a1.22,1.22,0,0,1,2.052,1.32l-13.74,21.336a1.2,1.2,0,0,1-.495.44,1.218,1.218,0,0,1-1.628-.568l-4.851-10.022Zm0-24.406a1.219,1.219,0,1,1,2.2-1.06l3.9,8.064,12.564-19.509a1.22,1.22,0,1,1,2.052,1.32l-13.74,21.336a1.2,1.2,0,0,1-.495.44,1.218,1.218,0,0,1-1.628-.568l-4.851-10.022Zm23.4,91.047a1.222,1.222,0,0,1,0-2.444h50.431a1.222,1.222,0,0,1,0,2.444Zm0-20.609a1.222,1.222,0,0,1,0-2.444h50.431a1.222,1.222,0,0,1,0,2.444Zm0-20.609a1.222,1.222,0,0,1,0-2.444h50.431a1.222,1.222,0,0,1,0,2.444Zm0-20.609a1.222,1.222,0,0,1,0-2.444h50.431a1.222,1.222,0,0,1,0,2.444Zm0-20.609a1.222,1.222,0,0,1,0-2.444h50.431a1.222,1.222,0,0,1,0,2.444ZM303.461,46.6H319.47a5.127,5.127,0,0,1,3.867,1.451,5.505,5.505,0,0,1,1.372,3.962V171.73a5.505,5.505,0,0,1-1.372,3.962,5.138,5.138,0,0,1-3.867,1.451H231.777a5.127,5.127,0,0,1-3.867-1.451,5.505,5.505,0,0,1-1.372-3.962V52.013a5.505,5.505,0,0,1,1.372-3.962,5.138,5.138,0,0,1,3.867-1.451h16.152c0-.1,0-.208,0-.314V41.973H223.145a3.6,3.6,0,0,0-2.7.907,4.053,4.053,0,0,0-.886,2.883v143.21a4.052,4.052,0,0,0,.886,2.883,3.606,3.606,0,0,0,2.7.907h104.9a3.6,3.6,0,0,0,2.7-.907,4.053,4.053,0,0,0,.886-2.883V45.764a4.052,4.052,0,0,0-.886-2.883,3.606,3.606,0,0,0-2.7-.907h-24.58v4.313c0,.107,0,.211,0,.314Zm-55.113,2.444H231.777a2.821,2.821,0,0,0-2.111.7,3.2,3.2,0,0,0-.684,2.272V171.73a3.2,3.2,0,0,0,.684,2.272,2.826,2.826,0,0,0,2.111.7H319.47a2.826,2.826,0,0,0,2.111-.7,3.2,3.2,0,0,0,.684-2.272V52.013a3.2,3.2,0,0,0-.684-2.272,2.826,2.826,0,0,0-2.111-.7H303.058a4.61,4.61,0,0,1-1.011,1.662,5.9,5.9,0,0,1-4.487,1.527l-.006-.006-43.717-.2v.006a6.093,6.093,0,0,1-4.459-1.4,4.266,4.266,0,0,1-1.026-1.592Zm55.119-9.518h24.58a5.916,5.916,0,0,1,4.454,1.658,6.354,6.354,0,0,1,1.573,4.573v143.21a6.352,6.352,0,0,1-1.573,4.573,5.916,5.916,0,0,1-4.454,1.658h-104.9a5.916,5.916,0,0,1-4.454-1.658,6.354,6.354,0,0,1-1.573-4.573V45.758a6.352,6.352,0,0,1,1.573-4.573,5.916,5.916,0,0,1,4.454-1.658h24.782V36.667a5.708,5.708,0,0,1,1.451-4.35,6.093,6.093,0,0,1,4.459-1.4v.006l10.63-.049c-.033-.171-.064-.345-.088-.516a11.607,11.607,0,0,1-.125-1.692,11.485,11.485,0,1,1,22.97,0,11.892,11.892,0,0,1-.131,1.747c-.018.116-.036.235-.058.351l10.523-.043.006-.006a5.9,5.9,0,0,1,4.487,1.527,6.072,6.072,0,0,1,1.42,4.423v2.859Zm-22.454-8.739,3.522-.016c.055-.235.1-.477.141-.724a9.313,9.313,0,0,0,.1-1.383A9.041,9.041,0,1,0,266.795,30c.043.3.1.583.168.858l3.516-.016a5.426,5.426,0,1,1,10.538-.058Zm-3.167-3.372a2.98,2.98,0,1,0,.873,2.108A2.972,2.972,0,0,0,277.846,27.415Z" transform="translate(-217.118 -17.183)" fill="url(#linear-gradient)"/>
</svg>