<svg xmlns="http://www.w3.org/2000/svg" xmlns:xlink="http://www.w3.org/1999/xlink" width="195.461" height="202.787" viewBox="0 0 195.461 202.787">
  <defs>
    <linearGradient id="linear-gradient" x1="0.381" y1="0.043" x2="0.5" y2="1" gradientUnits="objectBoundingBox">
      <stop offset="0" stop-color="#0abcef"/>
      <stop offset="0.227" stop-color="#0abeeb"/>
      <stop offset="1" stop-color="#0de4a2"/>
    </linearGradient>
  </defs>
  <path id="icon_components" d="M148.942,82.5a1.441,1.441,0,0,1,.193.013,1.839,1.839,0,0,1,2.017,1.684v79.419h78.215a11.809,11.809,0,0,1,2.724.061,1.462,1.462,0,0,1,.936,1.364v73.348c0,3.219-.459,5.449-1.846,6.986-1.41,1.561-3.579,2.206-6.959,2.206H73.661c-3.381,0-5.549-.645-6.959-2.206-1.388-1.536-1.846-3.767-1.846-6.986V91.692c0-3.219.459-5.449,1.846-6.986,1.41-1.561,3.579-2.206,6.959-2.206h75.28Zm-.712,2.922H73.662c-2.508,0-4.012.362-4.8,1.236-.813.9-1.081,2.535-1.081,5.033v146.7c0,2.5.269,4.134,1.081,5.033.79.875,2.294,1.236,4.8,1.236H224.222c2.508,0,4.012-.362,4.8-1.236.813-.9,1.081-2.535,1.081-5.033V166.538H149.69a1.461,1.461,0,0,1-1.461-1.461V85.423ZM197,133.644V116.957c0-.29.086-.35.049-.392-.06-.066-.026.093-.259.093H162.54c-.23,0-.194-.16-.253-.093l-.014.015a1.817,1.817,0,0,1,.058.377v33.374c0,.29-.086.35-.049.392l0,0,0,0c.06.066.024-.093.253-.093H196.8c.234,0,.2.16.259.093.037-.041-.049-.1-.049-.392V133.644Zm2.922-16.687v33.374a3.253,3.253,0,0,1-.716,2.343,2.986,2.986,0,0,1-2.416.877H162.54a2.993,2.993,0,0,1-2.422-.877l0,0a3.255,3.255,0,0,1-.713-2.34V116.957a3.378,3.378,0,0,1,.6-2.212,1.51,1.51,0,0,1,.1-.131,2.994,2.994,0,0,1,2.422-.877h34.254a2.986,2.986,0,0,1,2.416.877,3.254,3.254,0,0,1,.716,2.343ZM187.048,73.812V60.249h-27.7V87.376h27.7Zm2.922-13.592V87.4a2.891,2.891,0,0,1-.653,2.089,2.677,2.677,0,0,1-2.169.8h-27.9a2.68,2.68,0,0,1-2.169-.8,2.891,2.891,0,0,1-.653-2.089V60.221a2.891,2.891,0,0,1,.653-2.089,2.679,2.679,0,0,1,2.169-.8h27.9a2.68,2.68,0,0,1,2.169.8A2.891,2.891,0,0,1,189.97,60.221Zm-2.815-.1c.026,0,.038,0,0-.039l-.011-.012v.036l.007.016Zm-.007-.051c-.034-.036-.019-.008,0,.036Zm-27.9.036v-.036l-.011.012c-.034.037-.022.039,0,.039l.007-.016Zm0,0c.019-.044.034-.071,0-.036Zm-.007,27.4c-.026,0-.038,0,0,.039l.011.012v-.036l-.007-.016Zm.007.051c.034.036.019.008,0-.036Zm27.9-.036v.036l.011-.012c.034-.037.022-.039,0-.039l-.007.016Zm0,0c-.019.044-.034.071,0,.036Zm55.95,43.117V117.073H215.4V144.2h27.7Zm2.922-13.592v27.183a2.891,2.891,0,0,1-.653,2.089,2.677,2.677,0,0,1-2.169.8H215.3a2.68,2.68,0,0,1-2.169-.8,2.891,2.891,0,0,1-.653-2.089V117.044a2.891,2.891,0,0,1,.653-2.089,2.679,2.679,0,0,1,2.169-.8h27.9a2.68,2.68,0,0,1,2.169.8A2.891,2.891,0,0,1,246.02,117.044Zm-2.815-.1c.026,0,.038,0,0-.039l-.011-.012v.036l.007.016Zm-.007-.051c-.034-.036-.019-.008,0,.036Zm-27.9.036v-.036l-.011.012c-.034.037-.022.039,0,.039l.007-.016Zm0,0c.019-.044.034-.071,0-.036Zm-.007,27.4c-.026,0-.038,0,0,.039l.011.012v-.036l-.007-.016Zm.007.051c.034.036.019.008,0-.036Zm27.9-.036v.036l.011-.012c.034-.037.022-.039,0-.039l-.007.016Zm0,0c-.019.044-.034.071,0,.036ZM217.855,92.175v-8.9H199.668v17.792h18.187v-8.9Zm2.922-9.369v18.739a2.4,2.4,0,0,1-.569,1.743,2.257,2.257,0,0,1-1.83.7H199.144a2.257,2.257,0,0,1-1.83-.7,2.4,2.4,0,0,1-.569-1.743V82.806a2.4,2.4,0,0,1,.569-1.743,2.256,2.256,0,0,1,1.83-.7h19.234a2.258,2.258,0,0,1,1.83.7,2.4,2.4,0,0,1,.569,1.743Zm20.108-6.325V71.409H230.5V81.551h10.39Zm2.922-5.909V82.389a2.005,2.005,0,0,1-.494,1.46l0,0,0,0a1.916,1.916,0,0,1-1.552.623H229.626a1.953,1.953,0,0,1-1.416-.486,1.516,1.516,0,0,1-.142-.138,2.005,2.005,0,0,1-.494-1.46V70.571a2,2,0,0,1,.5-1.46,1.915,1.915,0,0,1,1.552-.623h12.129a1.918,1.918,0,0,1,1.552.623,2,2,0,0,1,.5,1.46ZM257.4,94.456V91.164h-6.766V97.75H257.4Zm2.922-4.3v8.6a1.866,1.866,0,0,1-.334,1.163,1.562,1.562,0,0,1-.128.165,1.766,1.766,0,0,1-1.429.586H249.6a1.764,1.764,0,0,1-1.429-.586l0,0a1.823,1.823,0,0,1-.466-1.325v-8.6a1.864,1.864,0,0,1,.334-1.163,1.563,1.563,0,0,1,.128-.166,1.765,1.765,0,0,1,1.429-.586h8.827a1.764,1.764,0,0,1,1.429.586l0,0A1.823,1.823,0,0,1,260.318,90.156Zm-6.135-39.149V47.716h-6.766V54.3h6.766Zm2.922-4.3v8.6a1.866,1.866,0,0,1-.334,1.164,1.554,1.554,0,0,1-.128.165,1.766,1.766,0,0,1-1.429.586h-8.827a1.764,1.764,0,0,1-1.429-.586l0,0a1.823,1.823,0,0,1-.466-1.325v-8.6a1.864,1.864,0,0,1,.334-1.163,1.56,1.56,0,0,1,.128-.166,1.765,1.765,0,0,1,1.429-.586h8.827a1.764,1.764,0,0,1,1.429.586l0,0A1.823,1.823,0,0,1,257.1,46.707ZM219,175.456a1.461,1.461,0,1,1,0,2.922h-81.3a1.461,1.461,0,0,1-1.461-1.461V95.7a1.461,1.461,0,1,1,2.922,0v79.751Z" transform="translate(-64.857 -44.794)" fill="url(#linear-gradient)"/>
</svg>