<svg xmlns="http://www.w3.org/2000/svg" xmlns:xlink="http://www.w3.org/1999/xlink" width="235.283" height="243.4" viewBox="0 0 235.283 243.4">
  <defs>
    <linearGradient id="linear-gradient" x1="0.381" y1="0.043" x2="0.5" y2="1" gradientUnits="objectBoundingBox">
      <stop offset="0" stop-color="#0abcef"/>
      <stop offset="0.227" stop-color="#0abeeb"/>
      <stop offset="1" stop-color="#0de4a2"/>
    </linearGradient>
  </defs>
  <path id="icon_uxprocess" d="M259.07,117.973V102.019c0-4.048-.682-7.168-2.309-9.2-1.56-1.943-4.128-2.982-7.984-2.982v-.009l-21.861-.084-44.963,31.531a1.773,1.773,0,0,1-2.069-.027l-44.927-31.5-21.861.084v.009c-3.856,0-6.428,1.039-7.984,2.982-1.627,2.033-2.309,5.154-2.309,9.2V116.7a59.156,59.156,0,0,1,19.713,3.1c5.671,2.113,9.179,5.234,9.179,8.872,0,.111,0,.227-.013.339l-.3,14.93h0c0,.107,0,.214-.009.321l-.3,14.947h0c0,.084,0,.165-.009.246l-.3,15.019c0,.04,0,.08,0,.12l-.317,15.861a1.743,1.743,0,0,1-.236.852c-1.806,5.675-13.289,10.1-27.421,10.392v24.113c0,4.048.673,7.177,2.292,9.215,1.547,1.943,4.1,2.982,7.957,2.982v.009l30.648.116c.205-4.124,1.217-8.475,3.535-11.679a11.6,11.6,0,0,1,9.906-4.966h47.745a11.6,11.6,0,0,1,9.906,4.966c2.313,3.205,3.33,7.547,3.535,11.671l30.3-.125c.053,0,.107-.009.165-.009,3.856,0,6.428-1.039,7.984-2.982,1.627-2.033,2.309-5.154,2.309-9.2V194.758H220.189a1.782,1.782,0,0,1-1.783-1.783V136.359a1.782,1.782,0,0,1,1.783-1.783h13.124V119.753a1.782,1.782,0,0,1,1.783-1.783h23.975Zm-77.9,174.27L192.825,273.6H169.51Zm8.947-7.592-7.423,11.862a1.783,1.783,0,0,1-3.04.027l-14.814-23.685a1.752,1.752,0,0,1-.33-1.034,1.782,1.782,0,0,1,1.783-1.783H173V255.211a1.783,1.783,0,1,1,3.566,0v14.827h8.889V255.211a1.783,1.783,0,1,1,3.566,0v14.827h7.008v0a1.778,1.778,0,0,1,1.511,2.719l-7.436,11.889Zm-9.174-52.524a10.012,10.012,0,0,1,9.214,6.121l24.6-.1c-.187-3.472-1.016-7.057-2.862-9.607a8.212,8.212,0,0,0-7.021-3.478H157.126a8.2,8.2,0,0,0-7.021,3.478c-1.846,2.555-2.675,6.143-2.862,9.616l24.479.094a10,10,0,0,1,9.214-6.125Zm9.986,9.669c0,.107,0,.214,0,.321a9.995,9.995,0,0,1-19.989,0c0-.107,0-.214,0-.321l-57.909-.223v.009c-5.033,0-8.493-1.507-10.743-4.333-2.171-2.733-3.072-6.593-3.072-11.43V201.688a57.281,57.281,0,0,1-17.881-3.076c-5.336-1.989-8.756-4.872-9.143-8.234a1.748,1.748,0,0,1-.031-.379v-.044c0-.071,0-.143,0-.219h.009l.3-15.073c0-.067,0-.129,0-.2h.009l.3-15.094c0-.058,0-.116,0-.174h0l.3-15.13v-.138h0l.3-15.17v-.1c0-.1,0-.2.009-.3v-.027a1.524,1.524,0,0,1,.031-.29c.727-5.871,11.751-10.628,25.8-11.279V102c0-4.841.914-8.7,3.1-11.43,2.26-2.818,5.728-4.32,10.757-4.32v.009l21.358-.08L179.906,54.3a1.773,1.773,0,0,1,2.069.027l45.431,31.861,21.358.08v-.009c5.028,0,8.5,1.5,10.757,4.32,2.189,2.728,3.1,6.589,3.1,11.43v15.955h43.037a1.782,1.782,0,0,1,1.783,1.783v56.616a1.782,1.782,0,0,1-1.783,1.783H292.538v14.823a1.782,1.782,0,0,1-1.783,1.783h-28.13V225.8c0,4.841-.914,8.7-3.1,11.43-2.26,2.818-5.728,4.32-10.757,4.32-.049,0-.1,0-.151,0l-57.695.236Zm-5.444-4.222a6.424,6.424,0,1,0,1.882,4.542A6.4,6.4,0,0,0,185.483,237.575ZM180.931,57.938,138.353,87.8l42.578,29.859L223.509,87.8Zm-104.1,76.579-.187,9.429h.009c0,1.993,2.616,3.963,6.851,5.541a55.8,55.8,0,0,0,18.728,2.866c14.127,0,25.58-3.762,25.58-8.407h.009l.187-9.446c-4.98,3.669-14.52,6.152-25.473,6.152a59.346,59.346,0,0,1-19.972-3.1,22.049,22.049,0,0,1-5.737-3.032Zm-.3,15.268-.187,9.429h0c0,1.993,2.616,3.963,6.851,5.541a55.8,55.8,0,0,0,18.728,2.866c14.127,0,25.58-3.762,25.58-8.408h.009l.187-9.446c-4.98,3.669-14.52,6.152-25.473,6.152a59.347,59.347,0,0,1-19.972-3.1,22.049,22.049,0,0,1-5.737-3.032Zm-.3,15.268-.187,9.424h0c0,1.993,2.616,3.963,6.851,5.541a55.8,55.8,0,0,0,18.728,2.866c14.127,0,25.58-3.762,25.58-8.407h.013l.187-9.446c-4.98,3.669-14.52,6.152-25.477,6.152a59.346,59.346,0,0,1-19.972-3.1,22.021,22.021,0,0,1-5.733-3.032Zm-.3,15.268-.187,9.424h0c0,1.993,2.616,3.963,6.851,5.541a55.8,55.8,0,0,0,18.728,2.866c14.127,0,25.58-3.762,25.58-8.407h.013l.187-9.446c-4.98,3.669-14.52,6.152-25.477,6.152a59.346,59.346,0,0,1-19.972-3.1,22.18,22.18,0,0,1-5.733-3.026Zm45.346-57.187a55.519,55.519,0,0,0-18.474-2.866v6.638a1.783,1.783,0,0,1-3.566,0v-6.567c-12.562.535-22.272,4.061-22.272,8.336,0,1.993,2.616,3.963,6.851,5.541a55.8,55.8,0,0,0,18.728,2.866c14.127,0,25.58-3.762,25.58-8.407,0-1.993-2.616-3.963-6.851-5.541Zm171.279,51.458h11.341v-53.05H236.869v13.039h53.888a1.782,1.782,0,0,1,1.783,1.783v38.227Zm-3.566-36.444H221.962V191.2h67.016Z" transform="translate(-72.162 -53.979)" fill="url(#linear-gradient)"/>
</svg>