<svg xmlns="http://www.w3.org/2000/svg" xmlns:xlink="http://www.w3.org/1999/xlink" width="183.337" height="184.626" viewBox="0 0 183.337 184.626">
		  <defs>
			<linearGradient id="linear-gradient" x1="0.381" y1="0.043" x2="0.5" y2="1" gradientUnits="objectBoundingBox">
			  <stop offset="0" stop-color="#0abcef"/>
			  <stop offset="0.227" stop-color="#0abeeb"/>
			  <stop offset="1" stop-color="#0de4a2"/>
			</linearGradient>
		  </defs>
		  <path id="icon_schedule" d="M113.171,162.229a6.355,6.355,0,1,1-4.492,1.861A6.336,6.336,0,0,1,113.171,162.229Zm-22.2,0a6.355,6.355,0,1,1-4.492,1.861A6.336,6.336,0,0,1,90.969,162.229Zm-22.2,0a6.355,6.355,0,1,1-4.492,1.861A6.336,6.336,0,0,1,68.766,162.229Zm44.4-42.2a6.355,6.355,0,1,1-4.492,1.861A6.336,6.336,0,0,1,113.168,120.028Zm-22.2,0a6.355,6.355,0,1,1-4.492,1.861A6.336,6.336,0,0,1,90.965,120.028Zm-22.2,0a6.355,6.355,0,1,1-4.492,1.861A6.336,6.336,0,0,1,68.763,120.028Zm44.4,21.407a6.355,6.355,0,1,1-4.492,1.861A6.336,6.336,0,0,1,113.165,141.435Zm-22.2,0A6.355,6.355,0,1,1,86.47,143.3,6.336,6.336,0,0,1,90.962,141.435Zm-22.2,0a6.355,6.355,0,1,1-4.492,1.861A6.336,6.336,0,0,1,68.759,141.435Zm71.13.213a6.355,6.355,0,1,1-4.492,1.861A6.336,6.336,0,0,1,139.889,141.648Zm44.4-43.246a6.355,6.355,0,1,1-4.492,1.861A6.336,6.336,0,0,1,184.291,98.4Zm-22.2,0a6.355,6.355,0,1,1-4.492,1.861A6.336,6.336,0,0,1,162.088,98.4Zm-22.2,0a6.355,6.355,0,1,1-4.492,1.861A6.336,6.336,0,0,1,139.886,98.4Zm44.4,21.407a6.355,6.355,0,1,1-4.492,1.861A6.336,6.336,0,0,1,184.288,119.808Zm-22.2,0a6.355,6.355,0,1,1-4.492,1.861A6.336,6.336,0,0,1,162.085,119.808Zm-22.2,0a6.355,6.355,0,1,1-4.492,1.861A6.336,6.336,0,0,1,139.882,119.808ZM212.66,140.25a1.332,1.332,0,0,1-2.664,0V81.224c0-6.689-.666-11.467-2.937-14.467-2.2-2.917-6.107-4.285-12.646-4.285H182.349a29.044,29.044,0,0,1,.16,3.074,25.582,25.582,0,0,1-3.836,13.941c-2.477,3.749-5.947,6.07-9.829,6.07V82.892c2.93,0,5.624-1.861,7.612-4.872a22.891,22.891,0,0,0,3.389-12.473,27.294,27.294,0,0,0-.173-3.074H172.13a29.048,29.048,0,0,1,.16,3.074,25.582,25.582,0,0,1-3.836,13.941c-2.477,3.749-5.947,6.07-9.829,6.07V82.895c2.93,0,5.624-1.861,7.612-4.872a22.891,22.891,0,0,0,3.39-12.473,27.294,27.294,0,0,0-.173-3.074H119.468a29.043,29.043,0,0,1,.16,3.074,25.582,25.582,0,0,1-3.836,13.941c-2.477,3.749-5.947,6.07-9.829,6.07V82.9c2.93,0,5.624-1.861,7.612-4.872a22.891,22.891,0,0,0,3.389-12.473,27.3,27.3,0,0,0-.173-3.074h-7.542a29.043,29.043,0,0,1,.16,3.074,25.582,25.582,0,0,1-3.836,13.941c-2.477,3.749-5.947,6.07-9.829,6.07V82.9c2.93,0,5.624-1.861,7.612-4.872a22.891,22.891,0,0,0,3.389-12.473,27.294,27.294,0,0,0-.173-3.074H67.551c-6.543,0-10.442,1.368-12.646,4.285-2.271,3-2.937,7.781-2.937,14.467V167.57c0,6.689.666,11.467,2.937,14.467,2.2,2.917,6.107,4.285,12.646,4.285h69.425a1.332,1.332,0,0,1,0,2.664H67.551c-7.459,0-12.017-1.7-14.771-5.348-2.687-3.556-3.476-8.82-3.476-16.072V81.23c0-7.249.789-12.516,3.476-16.072,2.75-3.639,7.308-5.348,14.771-5.348H82.645A22.019,22.019,0,0,1,87.2,49.9a11.288,11.288,0,0,1,8.547-4.362,10.042,10.042,0,0,1,5.111,1.428,10.031,10.031,0,0,1,5.108-1.428c3.882,0,7.352,2.321,9.829,6.07a23.346,23.346,0,0,1,3.27,8.2h26.465a22.018,22.018,0,0,1,4.552-9.909,11.288,11.288,0,0,1,8.547-4.362,10.042,10.042,0,0,1,5.111,1.428,10.031,10.031,0,0,1,5.108-1.428c3.882,0,7.352,2.321,9.829,6.07a23.346,23.346,0,0,1,3.27,8.2h12.469c7.459,0,12.017,1.7,14.77,5.348,2.687,3.556,3.476,8.824,3.476,16.072v59.026ZM56.03,89.734l0,2.664-2.664,0,0-2.664Zm152.888-.173h-1.052l0,2.664h1.052Zm-3.716,0,0,2.664-2.664,0,0-2.664Zm-5.328.007,0,2.664-2.664,0,0-2.664Zm-5.328.007,0,2.664-2.664,0,0-2.664Zm-5.328.007,0,2.664-2.664,0,0-2.664Zm-5.328.007,0,2.664-2.664,0,0-2.664Zm-5.328.007,0,2.664-2.664,0,0-2.664Zm-5.328.007,0,2.664-2.664,0,0-2.664Zm-5.328.007,0,2.664-2.664,0,0-2.664Zm-5.328.007,0,2.664-2.664,0,0-2.664Zm-5.328.007,0,2.664-2.664,0,0-2.664Zm-5.328.007,0,2.664-2.664,0,0-2.664Zm-5.328.007,0,2.664-2.664,0,0-2.664Zm-5.328.007,0,2.664-2.664,0,0-2.664Zm-5.328.007,0,2.664-2.664,0,0-2.664Zm-5.328.007,0,2.664-2.664,0,0-2.664Zm-5.328.007,0,2.664-2.664,0,0-2.664Zm-5.328.007,0,2.664-2.664,0,0-2.664Zm-5.328.007,0,2.664-2.664,0,0-2.664Zm-5.328.007,0,2.664-2.664,0,0-2.664Zm-5.328.007,0,2.664-2.664,0,0-2.664Zm-5.328.007,0,2.664-2.664,0,0-2.664Zm-5.328.007,0,2.664-2.664,0,0-2.664ZM88,89.708l0,2.664-2.664,0,0-2.664Zm-5.328.007,0,2.664-2.664,0,0-2.664Zm-5.328.007,0,2.664-2.664,0,0-2.664Zm-5.328.007,0,2.664-2.664,0,0-2.664Zm-5.328.007,0,2.664-2.664,0,0-2.664Zm-5.328.007,0,2.664-2.664,0,0-2.664ZM190.794,191l4.961,24.836a1.332,1.332,0,0,1-2.607.546l-6.839-24.194a8.115,8.115,0,1,1,3.49-15.554l13.186-12.806a1.329,1.329,0,0,1,1.971,1.775l-11.348,14.458a8.116,8.116,0,0,1-1.316,9.753,8.223,8.223,0,0,1-1.5,1.186Zm-.383-10.778a5.45,5.45,0,1,0,1.6,3.856A5.441,5.441,0,0,0,190.411,180.222Zm18.573-33.334-9.2,15.933L198.345,162l9.2-15.939a43.215,43.215,0,0,0-20.165-5.394v18.393h-1.658V140.662a43.2,43.2,0,0,0-20.161,5.394l9.2,15.936-1.439.832-9.2-15.936a43.593,43.593,0,0,0-14.757,14.761l15.933,9.2-.826,1.439-15.939-9.2a43.215,43.215,0,0,0-5.394,20.165h18.393v1.658H143.139a43.2,43.2,0,0,0,5.394,20.161l15.936-9.2.832,1.439-15.936,9.2a43.593,43.593,0,0,0,14.761,14.757l9.2-15.933,1.439.826-9.2,15.939a43.215,43.215,0,0,0,20.165,5.394V209.1h1.658v18.393a43.2,43.2,0,0,0,20.161-5.394l-9.2-15.936,1.439-.832,9.2,15.936a43.593,43.593,0,0,0,14.757-14.761l-15.933-9.2.826-1.439,15.939,9.2a43.215,43.215,0,0,0,5.394-20.165H211.578v-1.658h18.393a43.212,43.212,0,0,0-5.248-19.9l-16.083,9.287-.832-1.439,16.093-9.29a43.568,43.568,0,0,0-14.917-15.021Zm-22.429-8.9a46.086,46.086,0,1,1-32.588,13.5A45.941,45.941,0,0,1,186.555,137.991ZM166.1,48.765a16.511,16.511,0,0,1,2.357,2.847,23.346,23.346,0,0,1,3.27,8.2h7.5a20.332,20.332,0,0,0-2.767-6.736c-1.988-3.01-4.682-4.872-7.612-4.872a7.111,7.111,0,0,0-2.747.559ZM155.748,59.816a22.089,22.089,0,0,1,4.489-9.84,15.266,15.266,0,0,1,1.135-1.209,7.184,7.184,0,0,0-2.747-.559,8.717,8.717,0,0,0-6.529,3.426,19.092,19.092,0,0,0-3.849,8.181h7.5Zm7.988-9.6a11.758,11.758,0,0,0-1.468,1.472,19.126,19.126,0,0,0-3.8,8.125h10.542a20.332,20.332,0,0,0-2.767-6.736,13.256,13.256,0,0,0-2.5-2.86Zm-60.521-1.455a16.511,16.511,0,0,1,2.357,2.847,23.346,23.346,0,0,1,3.27,8.2h7.5a20.332,20.332,0,0,0-2.767-6.736c-1.988-3.01-4.682-4.872-7.612-4.872a7.112,7.112,0,0,0-2.747.559ZM92.867,59.816a22.089,22.089,0,0,1,4.489-9.84,15.271,15.271,0,0,1,1.135-1.209,7.184,7.184,0,0,0-2.747-.559,8.717,8.717,0,0,0-6.529,3.426,19.092,19.092,0,0,0-3.849,8.181h7.5Zm7.988-9.6a11.759,11.759,0,0,0-1.468,1.472,19.126,19.126,0,0,0-3.8,8.125h10.542a20.332,20.332,0,0,0-2.767-6.736,13.256,13.256,0,0,0-2.5-2.86Z" transform="translate(-49.305 -45.538)" fill="url(#linear-gradient)"/>
		</svg>