<svg xmlns="http://www.w3.org/2000/svg" xmlns:xlink="http://www.w3.org/1999/xlink" width="212.048" height="220.339" viewBox="0 0 212.048 220.339">
		  <defs>
			<linearGradient id="linear-gradient" x1="0.381" y1="0.043" x2="0.5" y2="1" gradientUnits="objectBoundingBox">
			  <stop offset="0" stop-color="#0abcef"/>
			  <stop offset="0.227" stop-color="#0abeeb"/>
			  <stop offset="1" stop-color="#0de4a2"/>
			</linearGradient>
		  </defs>
		  <path id="icon_feedback" d="M175.341,105.039a1.609,1.609,0,0,1,2.343,2.206l-32.989,35.01c-.024.024-.048.053-.076.076a5.556,5.556,0,0,1-3.734,1.823,5.2,5.2,0,0,1-3.871-1.783l-22.258-22.435a1.385,1.385,0,0,1-.109-.121l0,0a7.823,7.823,0,0,1-1.726-3.847,6.821,6.821,0,0,1,.415-3.481,6.646,6.646,0,0,1,1.992-2.722,6.456,6.456,0,0,1,3.166-1.375,6.162,6.162,0,0,1,3.449.4,8.2,8.2,0,0,1,2.536,1.868l14.813,14.934a2.224,2.224,0,0,0,1.5.835,2.567,2.567,0,0,0,1.56-.9l32.981-35a1.609,1.609,0,0,1,2.343,2.206l-32.989,35.01-.036.04a5.58,5.58,0,0,1-3.771,1.859,5.2,5.2,0,0,1-3.871-1.783l-14.813-14.934a5.284,5.284,0,0,0-1.541-1.185,3.111,3.111,0,0,0-1.722-.161,3.247,3.247,0,0,0-1.581.694,3.45,3.45,0,0,0-1.037,1.4,3.636,3.636,0,0,0-.213,1.855,4.613,4.613,0,0,0,1.02,2.23l22.165,22.342a2.224,2.224,0,0,0,1.5.835,2.567,2.567,0,0,0,1.56-.9l32.981-35Zm-72.189,54.6-2.347-2.214,2.214-2.347,2.347,2.214ZM76.566,187.783l-2.347-2.214,2.214-2.347,2.347,2.214Zm8.861-9.381-2.347-2.214,2.214-2.347,2.347,2.214Zm8.861-9.381-2.347-2.214,2.214-2.347,2.347,2.214Zm111.591-63.95.065.291.076.347.072.347.072.351.137.7.129.7.061.355,3.182-.54-.129-.742-.069-.371-.069-.367-.145-.734-.153-.734-.065-.291-3.154.685Zm-52.3-47.822.113.016.685.1,1.028.158.677.113.339.061.262.048.584-3.174-.278-.053-.359-.065-.718-.121-.718-.113-.718-.106-.363-.048L154,54.046l-.424,3.2Zm12.212,2.892.21.072.318.113.955.35.318.121.314.121.629.25.194.076,1.222-2.988-.21-.085-.331-.133-.331-.129-.335-.129-1-.376-.335-.121-.339-.121-.21-.072-1.073,3.045Zm11.381,5.311.125.076.287.173.86.532.846.543.282.186.258.169,1.794-2.682-.27-.181-.295-.194-.3-.194-.9-.569-.6-.372-.3-.181-.125-.076-1.661,2.766Zm10.082,7.493.25.23.737.69.725.7.476.476.072.076,2.3-2.262-.588-.588-.763-.737-.775-.725-.266-.242-2.178,2.383Zm8.364,9.356.145.2.2.274.2.278.388.556.19.278.38.564.186.282.1.158,2.71-1.754L200,82.965l-.4-.6-.6-.884-.617-.872-.145-.2-2.617,1.883Zm6.3,10.857.121.27.141.314.137.314.137.318.266.636.129.318.129.323.158.4,3.009-1.162-.036-.1-.133-.339-.274-.677-.423-1-.145-.335-.145-.331-.121-.27-2.948,1.311ZM112.548,174.2a1.61,1.61,0,1,1,2.194-2.355,14.9,14.9,0,0,0,2.372,1.427c1.081.569,2.15,1.077,2.541,1.263a61.486,61.486,0,0,0,31.2,5.739c1.855-.141,3.686-.367,5.489-.666a65.211,65.211,0,0,1,45.641-34.437,61.582,61.582,0,0,0,5.808-31.344,1.611,1.611,0,1,1,3.214-.238,64.742,64.742,0,0,1-5.2,30.965q1.784-.236,3.593-.375a64.892,64.892,0,0,1,32.811,6.042c.407.194,1.524.726,2.666,1.323a16.509,16.509,0,0,1,3.061,1.92,1.61,1.61,0,0,1-2.194,2.355,14.9,14.9,0,0,0-2.372-1.427c-1.081-.569-2.15-1.077-2.541-1.263a61.486,61.486,0,0,0-31.2-5.739c-1.855.141-3.686.367-5.489.666A65.211,65.211,0,0,1,158.5,182.487a61.582,61.582,0,0,0-5.808,31.344,1.611,1.611,0,1,1-3.214.238,64.742,64.742,0,0,1,5.2-30.965q-1.784.236-3.593.375a64.892,64.892,0,0,1-32.811-6.042c-.407-.194-1.524-.726-2.666-1.323A16.508,16.508,0,0,1,112.548,174.2Zm47.883,4.577a61.937,61.937,0,0,0,39.619-29.9,61.937,61.937,0,0,0-39.619,29.9ZM141.1,53.659a1.611,1.611,0,1,1,.238,3.214,61.863,61.863,0,0,0-45.693,97.548,1.608,1.608,0,0,1-2.621,1.864A65.11,65.11,0,0,1,141.1,53.654Zm-24.48,106.223-2.347-2.214,2.214-2.347,2.347,2.214ZM90.037,188.028l-2.347-2.214,2.214-2.347,2.347,2.214Zm8.861-9.381-2.347-2.214,2.214-2.347,2.347,2.214Zm8.861-9.381-2.347-2.214,2.214-2.347,2.347,2.214Zm149.577-1.258,2.347,2.214-2.214,2.347-2.347-2.214Zm26.585-28.146,2.347,2.214-2.214,2.347-2.347-2.214Zm-8.861,9.381,2.347,2.214-2.214,2.347-2.347-2.214Zm-8.861,9.381,2.347,2.214-2.214,2.347-2.347-2.214Zm-25.8,67.007a7.856,7.856,0,0,1,1.718,3.831,6.855,6.855,0,0,1-.411,3.468,6.659,6.659,0,0,1-1.984,2.71,6.465,6.465,0,0,1-3.174,1.387,6.162,6.162,0,0,1-3.449-.4,8.2,8.2,0,0,1-2.536-1.868l-14.813-14.934a2.224,2.224,0,0,0-1.5-.835,2.609,2.609,0,0,0-1.589.928L197.8,234.846c-.04.04-.085.08-.129.117l0,0a8.214,8.214,0,0,1-4.012,1.811,6.843,6.843,0,0,1-3.485-.4,6.633,6.633,0,0,1-2.71-1.984,6.405,6.405,0,0,1-1.367-3.154,6.162,6.162,0,0,1,.4-3.449,8.2,8.2,0,0,1,1.868-2.536l14.934-14.813a2.224,2.224,0,0,0,.835-1.5,2.61,2.61,0,0,0-.928-1.589l-14.785-14.716c-.044-.044-.08-.089-.121-.133a7.847,7.847,0,0,1-1.71-3.831,6.858,6.858,0,0,1,.419-3.5,6.7,6.7,0,0,1,2.016-2.726,6.407,6.407,0,0,1,3.146-1.359,6.162,6.162,0,0,1,3.449.4,8.2,8.2,0,0,1,2.536,1.868l14.813,14.934a2.224,2.224,0,0,0,1.5.835,2.622,2.622,0,0,0,1.589-.923l14.817-14.926a1.388,1.388,0,0,1,.121-.109l0,0a8.094,8.094,0,0,1,4-1.815,6.771,6.771,0,0,1,3.452.4,6.61,6.61,0,0,1,2.7,1.96,6.4,6.4,0,0,1,1.387,3.182,6.162,6.162,0,0,1-.4,3.449,8.2,8.2,0,0,1-1.868,2.536l-14.934,14.813a2.224,2.224,0,0,0-.835,1.5,2.622,2.622,0,0,0,.923,1.589l14.825,14.716a1.728,1.728,0,0,1,.145.161Zm-1.472,4.271a4.626,4.626,0,0,0-1-2.214l-14.773-14.667a5.579,5.579,0,0,1-1.859-3.771,5.2,5.2,0,0,1,1.783-3.871l14.934-14.813a5.285,5.285,0,0,0,1.185-1.541,3.111,3.111,0,0,0,.161-1.722,3.2,3.2,0,0,0-.7-1.581,3.34,3.34,0,0,0-1.375-1,3.63,3.63,0,0,0-1.839-.21,4.86,4.86,0,0,0-2.363,1.093l-14.745,14.853a5.579,5.579,0,0,1-3.771,1.859,5.2,5.2,0,0,1-3.871-1.783L195.884,185.6a5.285,5.285,0,0,0-1.541-1.185,3.115,3.115,0,0,0-1.722-.161,3.221,3.221,0,0,0-1.569.681,3.454,3.454,0,0,0-1.044,1.415,3.646,3.646,0,0,0-.217,1.868,4.634,4.634,0,0,0,.98,2.194l14.724,14.656a5.579,5.579,0,0,1,1.859,3.771,5.2,5.2,0,0,1-1.783,3.871l-14.934,14.813a5.284,5.284,0,0,0-1.185,1.541,3.111,3.111,0,0,0-.161,1.722,3.187,3.187,0,0,0,.685,1.565,3.4,3.4,0,0,0,1.387,1.012,3.656,3.656,0,0,0,1.859.213,4.99,4.99,0,0,0,2.391-1.1L210.39,217.63a5.579,5.579,0,0,1,3.771-1.859,5.2,5.2,0,0,1,3.871,1.783l14.813,14.934a5.283,5.283,0,0,0,1.541,1.185,3.111,3.111,0,0,0,1.722.162,3.2,3.2,0,0,0,1.585-.694,3.44,3.44,0,0,0,1.024-1.4,3.588,3.588,0,0,0,.21-1.843Zm-84.316-7.328-.065-.291-.076-.347-.072-.347-.072-.351-.137-.7-.129-.7-.061-.355-3.182.54.129.742.069.371.069.367.145.734.153.734.065.291,3.154-.685Zm52.3,47.822-.113-.016-.685-.1-1.028-.158-.343-.057-.339-.057-.339-.061-.262-.048-.584,3.174.278.053.359.065.718.121.718.113.359.053.363.053.363.048.113.016.424-3.2ZM194.7,267.505l-.213-.072-.318-.113-.955-.35-.318-.121-.314-.121-.629-.25-.194-.076-1.222,2.988.21.085.331.133.331.129.335.129,1,.376.335.121.339.121.213.072,1.073-3.045Zm-11.381-5.311-.125-.076-.287-.173-.86-.532-.846-.544-.282-.186-.258-.169-1.794,2.682.27.181.295.194.3.194.9.57.6.372.3.181.125.076,1.661-2.766ZM173.236,254.7l-.25-.23-.737-.69-.725-.7-.476-.476-.072-.076-2.3,2.262.588.588.763.737.775.725.266.242,2.178-2.383Zm-8.364-9.356-.145-.2-.2-.274-.2-.278-.387-.556-.19-.278-.38-.564-.186-.282-.1-.158-2.71,1.754.113.173.4.6.6.884.617.872.145.2,2.617-1.883Zm-6.3-10.857-.121-.27-.141-.314-.137-.314-.137-.318-.266-.636-.129-.318-.258-.646-.032-.08-3.009,1.162.036.1.133.339.274.677.423,1,.145.335.145.331.121.27,2.948-1.311Zm60.7,39.5a1.614,1.614,0,0,1-.057-3.226A61.863,61.863,0,0,0,264.84,173.22a1.608,1.608,0,0,1,2.621-1.864,64.812,64.812,0,0,1,11.833,32.638,1.225,1.225,0,0,1,.012.169,65.1,65.1,0,0,1-59.825,69.814,1.877,1.877,0,0,1-.213.016Zm24.6-106.227,2.347,2.214L244,172.325l-2.347-2.214Zm26.585-28.146,2.347,2.214-2.214,2.347-2.347-2.214ZM261.593,149l2.347,2.214-2.214,2.347-2.347-2.214Zm-8.861,9.381,2.347,2.214-2.214,2.347-2.347-2.214Z" transform="translate(-74.219 -53.654)" fill="url(#linear-gradient)"/>
		</svg>