<svg xmlns="http://www.w3.org/2000/svg" xmlns:xlink="http://www.w3.org/1999/xlink" width="224.423" height="222.374" viewBox="0 0 224.423 222.374">
  <defs>
    <linearGradient id="linear-gradient" x1="0.381" y1="0.043" x2="0.5" y2="1" gradientUnits="objectBoundingBox">
      <stop offset="0" stop-color="#0abcef"/>
      <stop offset="0.227" stop-color="#0abeeb"/>
      <stop offset="1" stop-color="#0de4a2"/>
    </linearGradient>
  </defs>
  <path id="icon_ideas" d="M177.849,86.439a1.606,1.606,0,0,1,.389,3.189L60.685,103.98q-1.65.2-3.122.522-7.355,1.6-10.5,6.178t-2.21,12.365q.2,1.681.6,3.49l17.37,79.694c1.335,6.123,2.815,10.093,5.5,12.539s6.737,3.537,13.26,3.941c1.278.079,2.371.139,3.432.2,11,.6,18.926,1.034,27.6,9.443l32.172,31.192.315-27.815c.082-7.212,3.795-8.477,9.738-8.41,1.4.016,2.828.105,4.359.2L209,230.6c7.087.439,11.461-1.077,14.356-4.187,2.989-3.21,4.591-8.218,6.005-14.57l5.027-22.564a1.6,1.6,0,0,1,3.126.691l-5.027,22.564c-1.529,6.866-3.312,12.336-6.784,16.064-3.565,3.829-8.728,5.71-16.892,5.2l-49.8-3.085c-1.55-.1-2.991-.187-4.2-.2-3.976-.045-6.46.742-6.511,5.233l-.355,31.477a1.6,1.6,0,0,1-2.719,1.205l-34.848-33.787c-7.809-7.571-15.228-7.977-25.527-8.539-1.167-.064-2.368-.129-3.457-.2-7.3-.452-11.949-1.777-15.231-4.769s-5-7.459-6.477-14.234l-17.37-79.694q-.428-1.966-.65-3.779-1.095-8.967,2.762-14.574t12.461-7.5q1.627-.354,3.41-.572L177.851,86.438ZM116.2,228.3a1,1,0,1,1,1.4-1.436l17.173,16.65a1,1,0,0,1-1.4,1.436Zm118.623-57.733a1.607,1.607,0,0,1,3.214,0,8.067,8.067,0,0,1-3.319,6.543,13.09,13.09,0,0,1-7.9,2.425h-.013a13.09,13.09,0,0,1-7.9-2.425,8.068,8.068,0,0,1-3.319-6.543,1.607,1.607,0,0,1,3.214,0,4.941,4.941,0,0,0,2.05,3.994,10.892,10.892,0,0,0,11.912,0,4.941,4.941,0,0,0,2.05-3.994Zm-1.537-44.123V92.055a27.043,27.043,0,0,1-6.48.772v0a26.986,26.986,0,0,1-6.481-.775v34.382c1.988.146,4.182.226,6.492.226s4.487-.08,6.469-.224Zm-14.97-.178V91.46a18.713,18.713,0,0,1-3.422-1.58,12.536,12.536,0,0,1-4.42-4.26c-1.582-2.646-1.364-4.972-.279-6.591a5.239,5.239,0,0,1,2.988-2.123,5.164,5.164,0,0,1,3.7.373c1.875.957,3.388,3.179,3.433,7.04l0,.008v5.662a24.83,24.83,0,0,0,6.481.836v0a24.8,24.8,0,0,0,6.48-.837V84.327l0-.008c.045-3.862,1.558-6.084,3.433-7.04a5.164,5.164,0,0,1,3.7-.373,5.245,5.245,0,0,1,2.988,2.123c1.084,1.619,1.3,3.945-.279,6.591a12.536,12.536,0,0,1-4.42,4.26A18.662,18.662,0,0,1,235.3,91.46v34.808c1.166-.12,2.237-.264,3.188-.428,2.229-.385,3.607-.383,3.607-.479a1.611,1.611,0,0,1,.087-.524c.567-4.4,3.833-7.863,7.666-11.924,5.7-6.045,12.785-13.547,12.785-27.373a35.81,35.81,0,1,0-71.62,0c0,13.825,7.08,21.328,12.785,27.373,3.833,4.062,7.1,7.523,7.666,11.924a1.606,1.606,0,0,1,.087.523c0,.1,1.379.094,3.607.479.945.163,2.008.307,3.166.426ZM235.3,84.326h0v5a16.186,16.186,0,0,0,2.394-1.165,10.566,10.566,0,0,0,3.73-3.57c1.117-1.868,1.022-3.42.334-4.449a3.228,3.228,0,0,0-1.842-1.3,3.173,3.173,0,0,0-2.276.224c-1.274.651-2.306,2.291-2.342,5.259Zm-19.369,3.836a16.113,16.113,0,0,0,2.394,1.164v-5h0c-.036-2.968-1.067-4.609-2.342-5.259a3.173,3.173,0,0,0-2.276-.224,3.228,3.228,0,0,0-1.842,1.3c-.689,1.028-.783,2.58.334,4.449a10.563,10.563,0,0,0,3.73,3.57Zm26.167,60.708a11.866,11.866,0,0,1-1.554.758,31.568,31.568,0,0,1-9.918,1.753,1.6,1.6,0,1,1-.151-3.2,28.5,28.5,0,0,0,8.863-1.526c1.539-.625,2.52-1.416,2.759-2.4v-16.01a19.454,19.454,0,0,1-3.068.76,85.2,85.2,0,0,1-24.413,0,19.591,19.591,0,0,1-3.068-.76v26.131a9.858,9.858,0,0,0,4.079,7.977,20.33,20.33,0,0,0,22.388,0,10.363,10.363,0,0,0,3.41-4.4,14.4,14.4,0,0,1-1.936.778,42.334,42.334,0,0,1-12.427,1.455,1.607,1.607,0,1,1,0-3.214,39.412,39.412,0,0,0,11.436-1.292c2.006-.653,3.3-1.529,3.6-2.673v-4.135ZM233.1,58.453a1,1,0,1,1,.392-1.962,28.432,28.432,0,0,1,19.63,14.826,1,1,0,0,1-1.781.918A26.461,26.461,0,0,0,233.1,58.453Zm-6.281-11.939a39.025,39.025,0,0,1,39.026,39.026c0,15.091-7.567,23.11-13.663,29.57-3.742,3.965-6.875,7.285-6.875,11.091v28.172a12.985,12.985,0,0,1-5.347,10.526,21.777,21.777,0,0,1-13.134,4.012h-.013a21.776,21.776,0,0,1-13.134-4.012,12.986,12.986,0,0,1-5.347-10.526V126.2c0-3.807-3.133-7.127-6.875-11.091-6.1-6.46-13.663-14.479-13.663-29.57a39.025,39.025,0,0,1,39.026-39.026Z" transform="translate(-41.424 -46.513)" fill="url(#linear-gradient)"/>
</svg>