<svg xmlns="http://www.w3.org/2000/svg" xmlns:xlink="http://www.w3.org/1999/xlink"><symbol viewBox="0 0 100 100" id="01_critical" xmlns="http://www.w3.org/2000/svg"><path d="m15.55 47.18 7.59 6.81-5.31 8.74q-.94 1.7.97 2.14l10.01 2.05-.28 10.22q-.07 1.9 1.87 1.43l9.72-3.19 4.91 8.94q.94 1.54 2.24.26l6.81-7.59 8.74 5.31q1.73.81 2.14-.97l2.05-10.01 10.22.28q1.96-.06 1.43-1.87l-3.19-9.72 8.94-4.91q1.55-.85.26-2.24l-7.59-6.81 5.31-8.74q1.07-1.73-.97-2.14l-10.01-2.05.28-10.22q.02-2.12-1.87-1.43l-9.72 3.19-5-8.87c-.82-1.68-1.1-1.68-2.25-.26l-6.81 7.59-8.74-5.31q-1.74-1.14-2.14.97l-2.05 10.01-10.22-.28q-2.01 0-1.43 1.87l3.19 9.72-8.85 4.84q-1.85.88-.26 2.24Zm35.67 18.66c-.89.71-1.99 1.07-3.12.94s-2.11-.73-2.82-1.63-.98-2.06-.84-3.27c.13-1.12.74-2.19 1.56-2.99 1.7-1.35 4.59-1.02 5.94.68.71.89.98 2.06.84 3.27s-.67 2.28-1.56 2.99Zm-3.94-29.67c.28-2.41 2.35-3.2 4.68-2.93s3.95 1.4 3.67 3.89l-1.57 15.64c-.28 2.41-2.35 3.2-4.68 2.93s-3.95-1.4-3.67-3.89l1.57-15.64Z" style="stroke-width:0"/></symbol><symbol viewBox="0 0 100 100" id="02_high" xmlns="http://www.w3.org/2000/svg"><path d="m50 53 33.33 16.67V59L50 42.33 16.67 59v10.67L50 53Z" style="stroke-width:0;opacity:.6"/><path d="m50 64 33.33 16.67V75L50 58.33 16.67 75v5.67L50 64Z" style="opacity:.3;stroke-width:0"/><path d="m50 36 33.33 16.67V36L50 19.33 16.67 36v16.67L50 36Z" style="stroke-width:0"/></symbol><symbol viewBox="0 0 100 100" id="03_default" xmlns="http://www.w3.org/2000/svg"><path d="m50 50 33.33 16.67V50L50 33.33 16.67 50v16.67L50 50Z" style="stroke-width:0"/></symbol><symbol viewBox="0 0 100 100" id="04_low" xmlns="http://www.w3.org/2000/svg"><path d="m50 50 33.33-16.67V50L50 66.67 16.67 50V33.33L50 50Z" style="stroke-width:0"/></symbol><symbol viewBox="0 0 100 100" id="05_wishlist" xmlns="http://www.w3.org/2000/svg"><path d="m50 47 33.33-16.67V41L50 57.67 16.67 41V30.33L50 47Z" style="stroke-width:0;opacity:.6"/><path d="m50 36 33.33-16.67V25L50 41.67 16.67 25v-5.67L50 36Z" style="opacity:.3;stroke-width:0"/><path d="m50 64 33.33-16.67V64L50 80.67 16.67 64V47.33L50 64Z" style="stroke-width:0"/></symbol><symbol viewBox="0 0 100 100" id="email" xmlns="http://www.w3.org/2000/svg"><path d="M14 21c-4.398 0-8 3.602-8 8v42c0 4.398 3.602 8 8 8h72c4.398 0 8-3.602 8-8V29c0-4.398-3.602-8-8-8zm0 4h72c2.25 0 4 1.75 4 4v42c0 2.25-1.75 4-4 4H14c-2.25 0-4-1.75-4-4V29c0-2.25 1.75-4 4-4zm4.625 7.969a2 2 0 0 0-1.219 3.5l15.25 13.78-15.219 13.22c-.406.347-.652.84-.695 1.37a2.005 2.005 0 0 0 1.863 2.148 1.99 1.99 0 0 0 1.457-.487l15.594-13.562 8.719 7.875c3.168 2.86 8.02 2.887 11.188.031l8.75-7.906L79.938 66.5a2.007 2.007 0 0 0 3.32-1.66 2.012 2.012 0 0 0-.695-1.371l-15.25-13.22 15.28-13.78a2.002 2.002 0 1 0-2.687-2.969l-27.03 24.344c-1.696 1.527-4.122 1.527-5.813 0L20.093 33.5a2.014 2.014 0 0 0-1.468-.531z"/></symbol><symbol viewBox="0 0 32 32" id="etsy" xmlns="http://www.w3.org/2000/svg"><path fill="#f45800" d="M11.456 3.26c0-.434.044-.694.784-.694h9.956c1.74 0 2.696 1.48 3.39 4.26l.566 2.22h1.696C28.152 2.74 28.414 0 28.414 0s-4.26.48-6.784.48H8.89L2.07.26v1.826l2.3.436c1.61.32 2 .66 2.132 2.14 0 0 .14 4.36.14 11.52 0 7.18-.12 11.48-.12 11.48 0 1.3-.52 1.78-2.12 2.1l-2.3.44v1.8l6.84-.22h11.4c2.58 0 8.52.22 8.52.22.14-1.56 1-8.64 1.14-9.42h-1.6l-1.7 3.88c-1.34 3.04-3.3 3.26-5.48 3.26H14.68c-2.174 0-3.22-.86-3.22-2.74V17.06s4.828 0 6.394.13c1.22.086 1.956.434 2.348 2.13l.52 2.26h1.88l-.12-5.696.26-5.74h-1.86l-.6 2.52c-.38 1.656-.64 1.96-2.34 2.134-2.22.22-6.42.18-6.42.18V3.26z"/></symbol><symbol viewBox="0 0 32 32" id="facebook" xmlns="http://www.w3.org/2000/svg"><path fill="#3b5998" d="M30.234 0H1.766C.79 0 0 .79 0 1.766v28.468C0 31.21.79 32 1.766 32h15.326V19.608H12.92V14.78h4.172v-3.566c0-4.132 2.524-6.38 6.212-6.38 1.766 0 3.284.128 3.726.188v4.32h-2.56c-2 0-2.39.96-2.39 2.36v3.08h4.78l-.62 4.84h-4.16V32h8.154C31.21 32 32 31.21 32 30.234V1.766C32 .79 31.21 0 30.234 0z"/></symbol><symbol viewBox="0 0 32 32" id="flickr" xmlns="http://www.w3.org/2000/svg"><path fill="#0063dc" d="M0 16a7.42 7.42 0 0 0 7.42 7.42c4.1 0 7.426-3.32 7.426-7.42S11.52 8.58 7.42 8.58A7.421 7.421 0 0 0 0 16zm17.154 0a7.42 7.42 0 0 0 7.424 7.42C28.66 23.42 32 20.1 32 16s-3.324-7.42-7.42-7.42c-4.1 0-7.426 3.32-7.426 7.42z"/></symbol><symbol viewBox="0 0 100 100" id="folder" xmlns="http://www.w3.org/2000/svg"><path d="M17.121 45.68zm80.48 4.762-13.602 32.34a2.003 2.003 0 0 1-2 1.219h-78a1.994 1.994 0 0 1-1.606-.739A1.998 1.998 0 0 1 2 81.54V22.72a6.599 6.599 0 0 1 6-6.72h14.359c1.684.118 3.25.91 4.34 2.2l6.601 7c.38.43.895.715 1.461.8h48C86 26 88 28.123 88 31.7V42h4a6.12 6.12 0 0 1 5.12 2.74 6.01 6.01 0 0 1 .458 5.702zM5.999 72 17.12 45.68A6 6 0 0 1 22.76 42H84V31.7c0-1.7-.5-1.7-1.18-1.7h-48a6.236 6.236 0 0 1-4.34-2l-6.602-7a2.651 2.651 0 0 0-1.457-1H7.998a2.724 2.724 0 0 0-2 2.72zm87.719-25.06a2.1 2.1 0 0 0-1.719-.94H22.761a2 2 0 0 0-2 1.238L6.941 80h73.801l13.16-31.121h-.004a1.987 1.987 0 0 0-.18-1.938z"/></symbol><symbol viewBox="0 0 32 32" id="googleplus" xmlns="http://www.w3.org/2000/svg"><path fill="#dc4e41" d="M10.18 14.546v3.49h5.78c-.232 1.5-1.746 4.394-5.774 4.394-3.474 0-6.31-2.88-6.31-6.43s2.83-6.43 6.304-6.43c1.98 0 3.304.844 4.06 1.572l2.764-2.66c-1.774-1.66-4.074-2.66-6.82-2.66C4.55 5.82 0 10.38 0 16s4.552 10.18 10.18 10.18c5.88 0 9.776-4.13 9.776-9.948 0-.668-.072-1.18-.16-1.686H10.18zm21.82 0h-2.91v-2.91h-2.91v2.91h-2.908v2.908h2.91v2.91h2.92v-2.91H32z"/></symbol><symbol viewBox="0 0 100 100" id="home" xmlns="http://www.w3.org/2000/svg"><path d="M58.332 70.832a4.179 4.179 0 0 0-4.203-4.164H45.87a4.179 4.179 0 0 0-4.203 4.164V54.168h16.664zM47.059 7.109c1.625-1.625 4.277-1.606 5.883 0l41.176 41.176c3.25 3.246 2.144 5.883-2.473 5.883H8.356c-4.617 0-5.738-2.617-2.473-5.883zM12.5 54.168h29.168v37.52c0 2.29-1.824 4.144-4.18 4.144H16.68c-2.308 0-4.18-1.898-4.18-4.144zm45.832 0H87.5v37.52c0 2.29-1.824 4.144-4.18 4.144H62.511c-2.308 0-4.18-1.898-4.18-4.144z" fill-rule="evenodd"/></symbol><symbol viewBox="0 0 195.461 202.787" id="icon_components" xmlns="http://www.w3.org/2000/svg"><defs><linearGradient id="ama" x1=".381" y1=".043" x2=".5" y2="1" gradientUnits="objectBoundingBox"><stop offset="0" stop-color="#0abcef"/><stop offset=".227" stop-color="#0abeeb"/><stop offset="1" stop-color="#0de4a2"/></linearGradient></defs><path d="M148.942 82.5a1.441 1.441 0 0 1 .193.013 1.839 1.839 0 0 1 2.017 1.684v79.419h78.215a11.809 11.809 0 0 1 2.724.061 1.462 1.462 0 0 1 .936 1.364v73.348c0 3.219-.459 5.449-1.846 6.986-1.41 1.561-3.579 2.206-6.959 2.206H73.661c-3.381 0-5.549-.645-6.959-2.206-1.388-1.536-1.846-3.767-1.846-6.986V91.692c0-3.219.459-5.449 1.846-6.986 1.41-1.561 3.579-2.206 6.959-2.206h75.28Zm-.712 2.922H73.662c-2.508 0-4.012.362-4.8 1.236-.813.9-1.081 2.535-1.081 5.033v146.7c0 2.5.269 4.134 1.081 5.033.79.875 2.294 1.236 4.8 1.236h150.56c2.508 0 4.012-.362 4.8-1.236.813-.9 1.081-2.535 1.081-5.033v-71.853H149.69a1.461 1.461 0 0 1-1.461-1.461V85.423ZM197 133.644v-16.687c0-.29.086-.35.049-.392-.06-.066-.026.093-.259.093h-34.25c-.23 0-.194-.16-.253-.093l-.014.015a1.817 1.817 0 0 1 .058.377v33.374c0 .29-.086.35-.049.392.06.066.024-.093.253-.093H196.8c.234 0 .2.16.259.093.037-.041-.049-.1-.049-.392v-16.687Zm2.922-16.687v33.374a3.253 3.253 0 0 1-.716 2.343 2.986 2.986 0 0 1-2.416.877h-34.25a2.993 2.993 0 0 1-2.422-.877 3.255 3.255 0 0 1-.713-2.34v-33.377a3.378 3.378 0 0 1 .6-2.212 1.51 1.51 0 0 1 .1-.131 2.994 2.994 0 0 1 2.422-.877h34.254a2.986 2.986 0 0 1 2.416.877 3.254 3.254 0 0 1 .716 2.343Zm-12.874-43.145V60.249h-27.7v27.127h27.7Zm2.922-13.592V87.4a2.891 2.891 0 0 1-.653 2.089 2.677 2.677 0 0 1-2.169.8h-27.9a2.68 2.68 0 0 1-2.169-.8 2.891 2.891 0 0 1-.653-2.089V60.221a2.891 2.891 0 0 1 .653-2.089 2.679 2.679 0 0 1 2.169-.8h27.9a2.68 2.68 0 0 1 2.169.8 2.891 2.891 0 0 1 .653 2.089Zm-2.815-.1c.026 0 .038 0 0-.039l-.011-.012v.036l.007.016Zm-.007-.051c-.034-.036-.019-.008 0 .036Zm-27.9.036v-.036l-.011.012c-.034.037-.022.039 0 .039l.007-.016Zm0 0c.019-.044.034-.071 0-.036Zm-.007 27.4c-.026 0-.038 0 0 .039l.011.012v-.036l-.007-.016Zm.007.051c.034.036.019.008 0-.036Zm27.9-.036v.036l.011-.012c.034-.037.022-.039 0-.039l-.007.016Zm0 0c-.019.044-.034.071 0 .036Zm55.95 43.117v-13.564H215.4V144.2h27.7Zm2.922-13.592v27.183a2.891 2.891 0 0 1-.653 2.089 2.677 2.677 0 0 1-2.169.8H215.3a2.68 2.68 0 0 1-2.169-.8 2.891 2.891 0 0 1-.653-2.089v-27.184a2.891 2.891 0 0 1 .653-2.089 2.679 2.679 0 0 1 2.169-.8h27.9a2.68 2.68 0 0 1 2.169.8 2.891 2.891 0 0 1 .651 2.089Zm-2.815-.1c.026 0 .038 0 0-.039l-.011-.012v.036l.007.016Zm-.007-.051c-.034-.036-.019-.008 0 .036Zm-27.9.036v-.036l-.011.012c-.034.037-.022.039 0 .039l.007-.016Zm0 0c.019-.044.034-.071 0-.036Zm-.007 27.4c-.026 0-.038 0 0 .039l.011.012v-.036l-.007-.016Zm.007.051c.034.036.019.008 0-.036Zm27.9-.036v.036l.011-.012c.034-.037.022-.039 0-.039l-.007.016Zm0 0c-.019.044-.034.071 0 .036Zm-25.343-52.17v-8.9h-18.187v17.792h18.187v-8.9Zm2.922-9.369v18.739a2.4 2.4 0 0 1-.569 1.743 2.257 2.257 0 0 1-1.83.7h-19.234a2.257 2.257 0 0 1-1.83-.7 2.4 2.4 0 0 1-.569-1.743V82.806a2.4 2.4 0 0 1 .569-1.743 2.256 2.256 0 0 1 1.83-.7h19.234a2.258 2.258 0 0 1 1.83.7 2.4 2.4 0 0 1 .569 1.743Zm20.108-6.325v-5.072H230.5v10.142h10.39Zm2.922-5.909v11.817a2.005 2.005 0 0 1-.494 1.46 1.916 1.916 0 0 1-1.552.623h-12.135a1.953 1.953 0 0 1-1.416-.486 1.516 1.516 0 0 1-.142-.138 2.005 2.005 0 0 1-.494-1.46V70.571a2 2 0 0 1 .5-1.46 1.915 1.915 0 0 1 1.552-.623h12.129a1.918 1.918 0 0 1 1.552.623 2 2 0 0 1 .5 1.46ZM257.4 94.456v-3.292h-6.766v6.586h6.766Zm2.922-4.3v8.6a1.866 1.866 0 0 1-.334 1.163 1.562 1.562 0 0 1-.128.165 1.766 1.766 0 0 1-1.429.586H249.6a1.764 1.764 0 0 1-1.429-.586 1.823 1.823 0 0 1-.466-1.325v-8.6a1.864 1.864 0 0 1 .334-1.163 1.563 1.563 0 0 1 .128-.166 1.765 1.765 0 0 1 1.429-.586h8.827a1.764 1.764 0 0 1 1.429.586 1.823 1.823 0 0 1 .466 1.326Zm-6.135-39.149v-3.291h-6.766V54.3h6.766Zm2.922-4.3v8.6a1.866 1.866 0 0 1-.334 1.164 1.554 1.554 0 0 1-.128.165 1.766 1.766 0 0 1-1.429.586h-8.827a1.764 1.764 0 0 1-1.429-.586 1.823 1.823 0 0 1-.466-1.325v-8.6a1.864 1.864 0 0 1 .334-1.163 1.56 1.56 0 0 1 .128-.166 1.765 1.765 0 0 1 1.429-.586h8.827a1.764 1.764 0 0 1 1.429.586 1.823 1.823 0 0 1 .457 1.325ZM219 175.456a1.461 1.461 0 1 1 0 2.922h-81.3a1.461 1.461 0 0 1-1.461-1.461V95.7a1.461 1.461 0 1 1 2.922 0v79.751Z" transform="translate(-64.857 -44.794)" fill="url(#ama)"/></symbol><symbol viewBox="0 0 197.475 195.875" id="icon_customerfeedback" xmlns="http://www.w3.org/2000/svg"><defs><linearGradient id="ana" x1=".381" y1=".043" x2=".5" y2="1" gradientUnits="objectBoundingBox"><stop offset="0" stop-color="#0abcef"/><stop offset=".227" stop-color="#0abeeb"/><stop offset="1" stop-color="#0de4a2"/></linearGradient></defs><path d="M134.18 203.4a1.681 1.681 0 1 1-3.362 0v-24.071a12 12 0 0 1 1.175-5.674 7.3 7.3 0 0 1 5.417-3.784l46.207-8.8a1.677 1.677 0 0 1 .617 3.3l-46.207 8.8a4.1 4.1 0 0 0-3.079 2.063 8.912 8.912 0 0 0-.767 4.1Zm119.98 34.712v-3.362h3.362v3.362Zm-53.79-.013v-3.362h3.362v3.363Zm13.448 0v-3.362h3.362v3.362Zm13.448 0v-3.362h3.362v3.362Zm13.448 0v-3.362h3.362v3.362Zm13.448-14.563v-3.362h3.362v3.362Zm-53.79-.013v-3.362h3.362v3.362Zm13.448 0v-3.362h3.362v3.362Zm13.448 0v-3.362h3.362v3.362Zm13.448 0v-3.362h3.362v3.362Zm14.54 88.647a8.907 8.907 0 1 1 11.425-12.149q.243.494.433.995c1.45 3.826.616 7.875-1.463 11.383a21.1 21.1 0 0 1-8.552 7.929c-.492.242-.989.46-1.488.648a1.677 1.677 0 0 1-1.851-2.676 7.911 7.911 0 0 0 1.369-2.6 9.053 9.053 0 0 0 .381-3.168.424.424 0 0 0-.071-.223.417.417 0 0 0-.184-.14Zm-1.188-5.146a5.56 5.56 0 0 0 2.475 2.047 3.732 3.732 0 0 1 2.317 3.291 12.637 12.637 0 0 1-.195 3 17.575 17.575 0 0 0 4.1-4.673c1.594-2.691 2.261-5.728 1.213-8.494q-.132-.348-.3-.693a5.579 5.579 0 0 0-2.056-2.269 5.552 5.552 0 0 0-7.55 7.787Zm-21.493 5.146A8.907 8.907 0 1 1 244 300.043q.243.494.433.995c1.45 3.826.616 7.875-1.463 11.383a21.1 21.1 0 0 1-8.552 7.929c-.492.242-.989.46-1.488.648a1.677 1.677 0 0 1-1.851-2.676 7.911 7.911 0 0 0 1.369-2.6 9.053 9.053 0 0 0 .381-3.168.424.424 0 0 0-.071-.223.417.417 0 0 0-.184-.14Zm-1.188-5.146a5.56 5.56 0 0 0 2.475 2.047 3.732 3.732 0 0 1 2.317 3.291 12.638 12.638 0 0 1-.195 3 17.575 17.575 0 0 0 4.1-4.673c1.594-2.691 2.261-5.728 1.213-8.494q-.132-.348-.3-.693a5.579 5.579 0 0 0-2.056-2.269 5.552 5.552 0 0 0-7.55 7.787Zm83.507-45.213a1.051 1.051 0 1 1 2.1 0v17.155a8.41 8.41 0 0 1-.819 3.975 5.059 5.059 0 0 1-3.758 2.622l-18.48 3.521a1.048 1.048 0 0 1-.386-2.06l18.48-3.521a3.066 3.066 0 0 0 2.3-1.546 6.484 6.484 0 0 0 .565-2.99Zm-112.738-110.1a8.907 8.907 0 1 1-11.425 12.149q-.243-.494-.433-.995c-1.45-3.826-.616-7.875 1.463-11.383a21.1 21.1 0 0 1 8.552-7.929c.492-.242.989-.46 1.488-.648a1.677 1.677 0 0 1 1.851 2.676 7.911 7.911 0 0 0-1.369 2.6 9.053 9.053 0 0 0-.381 3.168.424.424 0 0 0 .071.223.417.417 0 0 0 .184.14Zm1.188 5.146a5.56 5.56 0 0 0-2.475-2.047 3.732 3.732 0 0 1-2.317-3.291 12.639 12.639 0 0 1 .195-3 17.575 17.575 0 0 0-4.1 4.673c-1.594 2.691-2.261 5.728-1.213 8.494q.132.348.3.693a5.579 5.579 0 0 0 2.056 2.269 5.552 5.552 0 0 0 7.55-7.787Zm21.493-5.146a8.907 8.907 0 1 1-11.425 12.149q-.243-.494-.433-.995c-1.45-3.826-.616-7.875 1.463-11.383a21.1 21.1 0 0 1 8.552-7.929c.492-.242.989-.46 1.488-.648a1.677 1.677 0 0 1 1.851 2.676 7.911 7.911 0 0 0-1.369 2.6 9.053 9.053 0 0 0-.381 3.168.424.424 0 0 0 .071.223.417.417 0 0 0 .184.14Zm1.188 5.146a5.56 5.56 0 0 0-2.475-2.047 3.732 3.732 0 0 1-2.317-3.291 12.64 12.64 0 0 1 .195-3 17.575 17.575 0 0 0-4.1 4.673c-1.594 2.691-2.261 5.728-1.213 8.494q.132.348.3.693a5.579 5.579 0 0 0 2.056 2.269 5.552 5.552 0 0 0 7.55-7.787Zm-83.507 45.213a1.051 1.051 0 1 1-2.1 0v-17.155a8.409 8.409 0 0 1 .819-3.975 5.059 5.059 0 0 1 3.763-2.621l18.48-3.521a1.048 1.048 0 1 1 .386 2.06l-18.48 3.521a3.066 3.066 0 0 0-2.3 1.546 6.484 6.484 0 0 0-.565 2.99Zm95.135-47.884a1.677 1.677 0 0 1-.617-3.3l88.418-16.847a1.677 1.677 0 1 1 .617 3.3ZM323.227 260.5a1.681 1.681 0 0 1 3.362 0v24.073a12 12 0 0 1-1.175 5.674 7.3 7.3 0 0 1-5.414 3.782l-46.207 8.8a1.677 1.677 0 0 1-.617-3.3l46.207-8.8a4.1 4.1 0 0 0 3.079-2.063 8.912 8.912 0 0 0 .767-4.1Zm-103.475 49.216a1.677 1.677 0 0 1 .617 3.3l-88.417 16.844a1.677 1.677 0 1 1-.617-3.3Z" transform="translate(-129.966 -134.014)" fill="url(#ana)"/></symbol><symbol viewBox="0 0 212.048 220.339" id="icon_feedback" xmlns="http://www.w3.org/2000/svg"><defs><linearGradient id="aoa" x1=".381" y1=".043" x2=".5" y2="1" gradientUnits="objectBoundingBox"><stop offset="0" stop-color="#0abcef"/><stop offset=".227" stop-color="#0abeeb"/><stop offset="1" stop-color="#0de4a2"/></linearGradient></defs><path d="M175.341 105.039a1.609 1.609 0 0 1 2.343 2.206l-32.989 35.01c-.024.024-.048.053-.076.076a5.556 5.556 0 0 1-3.734 1.823 5.2 5.2 0 0 1-3.871-1.783l-22.258-22.435a1.385 1.385 0 0 1-.109-.121 7.823 7.823 0 0 1-1.726-3.847 6.821 6.821 0 0 1 .415-3.481 6.646 6.646 0 0 1 1.992-2.722 6.456 6.456 0 0 1 3.166-1.375 6.162 6.162 0 0 1 3.449.4 8.2 8.2 0 0 1 2.536 1.868l14.813 14.934a2.224 2.224 0 0 0 1.5.835 2.567 2.567 0 0 0 1.56-.9l32.981-35a1.609 1.609 0 0 1 2.343 2.206l-32.989 35.01-.036.04a5.58 5.58 0 0 1-3.771 1.859 5.2 5.2 0 0 1-3.871-1.783l-14.813-14.934a5.284 5.284 0 0 0-1.541-1.185 3.111 3.111 0 0 0-1.722-.161 3.247 3.247 0 0 0-1.581.694 3.45 3.45 0 0 0-1.037 1.4 3.636 3.636 0 0 0-.213 1.855 4.613 4.613 0 0 0 1.02 2.23l22.165 22.342a2.224 2.224 0 0 0 1.5.835 2.567 2.567 0 0 0 1.56-.9l32.981-35Zm-72.189 54.6-2.347-2.214 2.214-2.347 2.347 2.214Zm-26.586 28.144-2.347-2.214 2.214-2.347 2.347 2.214Zm8.861-9.381-2.347-2.214 2.214-2.347 2.347 2.214Zm8.861-9.381-2.347-2.214 2.214-2.347 2.347 2.214Zm111.591-63.95.065.291.076.347.072.347.072.351.137.7.129.7.061.355 3.182-.54-.129-.742-.069-.371-.069-.367-.145-.734-.153-.734-.065-.291-3.154.685Zm-52.3-47.822.113.016.685.1 1.028.158.677.113.339.061.262.048.584-3.174-.278-.053-.359-.065-.718-.121-.718-.113-.718-.106-.363-.048-.113-.019-.424 3.2Zm12.212 2.892.21.072.318.113.955.35.318.121.314.121.629.25.194.076 1.222-2.988-.21-.085-.331-.133-.331-.129-.335-.129-1-.376-.335-.121-.339-.121-.21-.072-1.073 3.045Zm11.381 5.311.125.076.287.173.86.532.846.543.282.186.258.169 1.794-2.682-.27-.181-.295-.194-.3-.194-.9-.569-.6-.372-.3-.181-.125-.076-1.661 2.766Zm10.082 7.493.25.23.737.69.725.7.476.476.072.076 2.3-2.262-.588-.588-.763-.737-.775-.725-.266-.242-2.178 2.383Zm8.364 9.356.145.2.2.274.2.278.388.556.19.278.38.564.186.282.1.158 2.71-1.754-.117-.172-.4-.6-.6-.884-.617-.872-.145-.2-2.617 1.883Zm6.3 10.857.121.27.141.314.137.314.137.318.266.636.129.318.129.323.158.4 3.009-1.162-.036-.1-.133-.339-.274-.677-.423-1-.145-.335-.145-.331-.121-.27-2.948 1.311Zm-89.37 81.042a1.61 1.61 0 1 1 2.194-2.355 14.9 14.9 0 0 0 2.372 1.427c1.081.569 2.15 1.077 2.541 1.263a61.486 61.486 0 0 0 31.2 5.739 62.507 62.507 0 0 0 5.489-.666 65.211 65.211 0 0 1 45.641-34.437 61.582 61.582 0 0 0 5.808-31.344 1.611 1.611 0 1 1 3.214-.238 64.742 64.742 0 0 1-5.2 30.965q1.784-.236 3.593-.375a64.892 64.892 0 0 1 32.811 6.042c.407.194 1.524.726 2.666 1.323a16.509 16.509 0 0 1 3.061 1.92 1.61 1.61 0 0 1-2.194 2.355 14.9 14.9 0 0 0-2.372-1.427c-1.081-.569-2.15-1.077-2.541-1.263a61.486 61.486 0 0 0-31.2-5.739 62.507 62.507 0 0 0-5.489.666 65.211 65.211 0 0 1-45.642 34.431 61.582 61.582 0 0 0-5.808 31.344 1.611 1.611 0 1 1-3.214.238 64.742 64.742 0 0 1 5.2-30.965q-1.784.236-3.593.375a64.892 64.892 0 0 1-32.811-6.042c-.407-.194-1.524-.726-2.666-1.323a16.508 16.508 0 0 1-3.06-1.914Zm47.883 4.577a61.937 61.937 0 0 0 39.619-29.9 61.937 61.937 0 0 0-39.619 29.9ZM141.1 53.659a1.611 1.611 0 1 1 .238 3.214 61.863 61.863 0 0 0-45.693 97.548 1.608 1.608 0 0 1-2.621 1.864A65.11 65.11 0 0 1 141.1 53.654Zm-24.48 106.223-2.347-2.214 2.214-2.347 2.347 2.214Zm-26.583 28.146-2.347-2.214 2.214-2.347 2.347 2.214Zm8.861-9.381-2.347-2.214 2.214-2.347 2.347 2.214Zm8.861-9.381-2.347-2.214 2.214-2.347 2.347 2.214Zm149.577-1.258 2.347 2.214-2.214 2.347-2.347-2.214Zm26.585-28.146 2.347 2.214-2.214 2.347-2.347-2.214Zm-8.861 9.381 2.347 2.214-2.214 2.347-2.347-2.214Zm-8.861 9.381 2.347 2.214-2.214 2.347-2.347-2.214Zm-25.8 67.007a7.856 7.856 0 0 1 1.718 3.831 6.855 6.855 0 0 1-.411 3.468 6.659 6.659 0 0 1-1.984 2.71 6.465 6.465 0 0 1-3.174 1.387 6.162 6.162 0 0 1-3.449-.4 8.2 8.2 0 0 1-2.536-1.868l-14.813-14.934a2.224 2.224 0 0 0-1.5-.835 2.609 2.609 0 0 0-1.589.928L197.8 234.846c-.04.04-.085.08-.129.117a8.214 8.214 0 0 1-4.012 1.811 6.843 6.843 0 0 1-3.485-.4 6.633 6.633 0 0 1-2.71-1.984 6.405 6.405 0 0 1-1.367-3.154 6.162 6.162 0 0 1 .4-3.449 8.2 8.2 0 0 1 1.868-2.536l14.934-14.813a2.224 2.224 0 0 0 .835-1.5 2.61 2.61 0 0 0-.928-1.589l-14.785-14.716c-.044-.044-.08-.089-.121-.133a7.847 7.847 0 0 1-1.71-3.831 6.858 6.858 0 0 1 .419-3.5 6.7 6.7 0 0 1 2.016-2.726 6.407 6.407 0 0 1 3.146-1.359 6.162 6.162 0 0 1 3.449.4 8.2 8.2 0 0 1 2.536 1.868l14.813 14.934a2.224 2.224 0 0 0 1.5.835 2.622 2.622 0 0 0 1.589-.923l14.817-14.926a1.388 1.388 0 0 1 .121-.109 8.094 8.094 0 0 1 4-1.815 6.771 6.771 0 0 1 3.452.4 6.61 6.61 0 0 1 2.7 1.96 6.4 6.4 0 0 1 1.387 3.182 6.162 6.162 0 0 1-.4 3.449 8.2 8.2 0 0 1-1.868 2.536l-14.934 14.813a2.224 2.224 0 0 0-.835 1.5 2.622 2.622 0 0 0 .923 1.589l14.825 14.716a1.728 1.728 0 0 1 .145.161Zm-1.472 4.271a4.626 4.626 0 0 0-1-2.214l-14.773-14.667a5.579 5.579 0 0 1-1.859-3.771 5.2 5.2 0 0 1 1.783-3.871l14.934-14.813a5.285 5.285 0 0 0 1.185-1.541 3.111 3.111 0 0 0 .161-1.722 3.2 3.2 0 0 0-.7-1.581 3.34 3.34 0 0 0-1.375-1 3.63 3.63 0 0 0-1.839-.21 4.86 4.86 0 0 0-2.363 1.093l-14.745 14.853a5.579 5.579 0 0 1-3.771 1.859 5.2 5.2 0 0 1-3.871-1.783l-14.81-14.934a5.285 5.285 0 0 0-1.541-1.185 3.115 3.115 0 0 0-1.722-.161 3.221 3.221 0 0 0-1.569.681 3.454 3.454 0 0 0-1.044 1.415 3.646 3.646 0 0 0-.217 1.868 4.634 4.634 0 0 0 .98 2.194l14.724 14.656a5.579 5.579 0 0 1 1.859 3.771 5.2 5.2 0 0 1-1.783 3.871l-14.934 14.813a5.284 5.284 0 0 0-1.185 1.541 3.111 3.111 0 0 0-.161 1.722 3.187 3.187 0 0 0 .685 1.565 3.4 3.4 0 0 0 1.387 1.012 3.656 3.656 0 0 0 1.859.213 4.99 4.99 0 0 0 2.391-1.1l14.777-14.846a5.579 5.579 0 0 1 3.771-1.859 5.2 5.2 0 0 1 3.871 1.783l14.813 14.934a5.283 5.283 0 0 0 1.541 1.185 3.111 3.111 0 0 0 1.722.162 3.2 3.2 0 0 0 1.585-.694 3.44 3.44 0 0 0 1.024-1.4 3.588 3.588 0 0 0 .21-1.843Zm-84.316-7.328-.065-.291-.076-.347-.072-.347-.072-.351-.137-.7-.129-.7-.061-.355-3.182.54.129.742.069.371.069.367.145.734.153.734.065.291 3.154-.685Zm52.3 47.822-.113-.016-.685-.1-1.028-.158-.343-.057-.339-.057-.339-.061-.262-.048-.584 3.174.278.053.359.065.718.121.718.113.359.053.363.053.363.048.113.016.424-3.2Zm-12.211-2.891-.213-.072-.318-.113-.955-.35-.318-.121-.314-.121-.629-.25-.194-.076-1.222 2.988.21.085.331.133.331.129.335.129 1 .376.335.121.339.121.213.072 1.073-3.045Zm-11.381-5.311-.125-.076-.287-.173-.86-.532-.846-.544-.282-.186-.258-.169-1.794 2.682.27.181.295.194.3.194.9.57.6.372.3.181.125.076 1.661-2.766Zm-10.083-7.494-.25-.23-.737-.69-.725-.7-.476-.476-.072-.076-2.3 2.262.588.588.763.737.775.725.266.242 2.178-2.383Zm-8.364-9.356-.145-.2-.2-.274-.2-.278-.387-.556-.19-.278-.38-.564-.186-.282-.1-.158-2.71 1.754.113.173.4.6.6.884.617.872.145.2 2.617-1.883Zm-6.3-10.857-.121-.27-.141-.314-.137-.314-.137-.318-.266-.636-.129-.318-.258-.646-.032-.08-3.009 1.162.036.1.133.339.274.677.423 1 .145.335.145.331.121.27 2.948-1.311Zm60.7 39.5a1.614 1.614 0 0 1-.057-3.226 61.863 61.863 0 0 0 45.625-97.541 1.608 1.608 0 0 1 2.621-1.864 64.812 64.812 0 0 1 11.833 32.638 1.225 1.225 0 0 1 .012.169 65.1 65.1 0 0 1-59.825 69.814 1.877 1.877 0 0 1-.213.016Zm24.6-106.227 2.347 2.214-2.219 2.351-2.347-2.214Zm26.585-28.146 2.347 2.214-2.214 2.347-2.347-2.214ZM261.593 149l2.347 2.214-2.214 2.347-2.347-2.214Zm-8.861 9.381 2.347 2.214-2.214 2.347-2.347-2.214Z" transform="translate(-74.219 -53.654)" fill="url(#aoa)"/></symbol><symbol viewBox="0 0 224.423 222.374" id="icon_ideas" xmlns="http://www.w3.org/2000/svg"><defs><linearGradient id="apa" x1=".381" y1=".043" x2=".5" y2="1" gradientUnits="objectBoundingBox"><stop offset="0" stop-color="#0abcef"/><stop offset=".227" stop-color="#0abeeb"/><stop offset="1" stop-color="#0de4a2"/></linearGradient></defs><path d="M177.849 86.439a1.606 1.606 0 0 1 .389 3.189L60.685 103.98q-1.65.2-3.122.522-7.355 1.6-10.5 6.178t-2.21 12.365q.2 1.681.6 3.49l17.37 79.694c1.335 6.123 2.815 10.093 5.5 12.539s6.737 3.537 13.26 3.941c1.278.079 2.371.139 3.432.2 11 .6 18.926 1.034 27.6 9.443l32.172 31.192.315-27.815c.082-7.212 3.795-8.477 9.738-8.41 1.4.016 2.828.105 4.359.2L209 230.6c7.087.439 11.461-1.077 14.356-4.187 2.989-3.21 4.591-8.218 6.005-14.57l5.027-22.564a1.6 1.6 0 0 1 3.126.691l-5.027 22.564c-1.529 6.866-3.312 12.336-6.784 16.064-3.565 3.829-8.728 5.71-16.892 5.2l-49.8-3.085c-1.55-.1-2.991-.187-4.2-.2-3.976-.045-6.46.742-6.511 5.233l-.355 31.477a1.6 1.6 0 0 1-2.719 1.205l-34.848-33.787c-7.809-7.571-15.228-7.977-25.527-8.539-1.167-.064-2.368-.129-3.457-.2-7.3-.452-11.949-1.777-15.231-4.769s-5-7.459-6.477-14.234l-17.37-79.694q-.428-1.966-.65-3.779-1.095-8.967 2.762-14.574t12.461-7.5q1.627-.354 3.41-.572l117.552-14.342ZM116.2 228.3a1 1 0 1 1 1.4-1.436l17.173 16.65a1 1 0 0 1-1.4 1.436Zm118.623-57.733a1.607 1.607 0 0 1 3.214 0 8.067 8.067 0 0 1-3.319 6.543 13.09 13.09 0 0 1-7.9 2.425h-.013a13.09 13.09 0 0 1-7.9-2.425 8.068 8.068 0 0 1-3.319-6.543 1.607 1.607 0 0 1 3.214 0 4.941 4.941 0 0 0 2.05 3.994 10.892 10.892 0 0 0 11.912 0 4.941 4.941 0 0 0 2.05-3.994Zm-1.537-44.123V92.055a27.043 27.043 0 0 1-6.48.772 26.986 26.986 0 0 1-6.481-.775v34.382c1.988.146 4.182.226 6.492.226s4.487-.08 6.469-.224Zm-14.97-.178V91.46a18.713 18.713 0 0 1-3.422-1.58 12.536 12.536 0 0 1-4.42-4.26c-1.582-2.646-1.364-4.972-.279-6.591a5.239 5.239 0 0 1 2.988-2.123 5.164 5.164 0 0 1 3.7.373c1.875.957 3.388 3.179 3.433 7.04v5.67a24.83 24.83 0 0 0 6.481.836 24.8 24.8 0 0 0 6.48-.837v-5.669c.045-3.862 1.558-6.084 3.433-7.04a5.164 5.164 0 0 1 3.7-.373 5.245 5.245 0 0 1 2.988 2.123c1.084 1.619 1.3 3.945-.279 6.591a12.536 12.536 0 0 1-4.42 4.26 18.662 18.662 0 0 1-3.399 1.58v34.808a47.659 47.659 0 0 0 3.188-.428c2.229-.385 3.607-.383 3.607-.479a1.611 1.611 0 0 1 .087-.524c.567-4.4 3.833-7.863 7.666-11.924 5.7-6.045 12.785-13.547 12.785-27.373a35.81 35.81 0 1 0-71.62 0c0 13.825 7.08 21.328 12.785 27.373 3.833 4.062 7.1 7.523 7.666 11.924a1.606 1.606 0 0 1 .087.523c0 .1 1.379.094 3.607.479.945.163 2.008.307 3.166.426Zm16.984-41.94v5a16.186 16.186 0 0 0 2.394-1.165 10.566 10.566 0 0 0 3.73-3.57c1.117-1.868 1.022-3.42.334-4.449a3.228 3.228 0 0 0-1.842-1.3 3.173 3.173 0 0 0-2.276.224c-1.274.651-2.306 2.291-2.342 5.259Zm-19.369 3.836a16.113 16.113 0 0 0 2.394 1.164v-5c-.036-2.968-1.067-4.609-2.342-5.259a3.173 3.173 0 0 0-2.276-.224 3.228 3.228 0 0 0-1.842 1.3c-.689 1.028-.783 2.58.334 4.449a10.563 10.563 0 0 0 3.73 3.57Zm26.167 60.708a11.866 11.866 0 0 1-1.554.758 31.568 31.568 0 0 1-9.918 1.753 1.6 1.6 0 1 1-.151-3.2 28.5 28.5 0 0 0 8.863-1.526c1.539-.625 2.52-1.416 2.759-2.4v-16.01a19.454 19.454 0 0 1-3.068.76 85.2 85.2 0 0 1-24.413 0 19.591 19.591 0 0 1-3.068-.76v26.131a9.858 9.858 0 0 0 4.079 7.977 20.33 20.33 0 0 0 22.388 0 10.363 10.363 0 0 0 3.41-4.4 14.4 14.4 0 0 1-1.936.778 42.334 42.334 0 0 1-12.427 1.455 1.607 1.607 0 1 1 0-3.214 39.412 39.412 0 0 0 11.436-1.292c2.006-.653 3.3-1.529 3.6-2.673v-4.135ZM233.1 58.453a1 1 0 1 1 .392-1.962 28.432 28.432 0 0 1 19.63 14.826 1 1 0 0 1-1.781.918A26.461 26.461 0 0 0 233.1 58.453Zm-6.281-11.939a39.025 39.025 0 0 1 39.026 39.026c0 15.091-7.567 23.11-13.663 29.57-3.742 3.965-6.875 7.285-6.875 11.091v28.172a12.985 12.985 0 0 1-5.347 10.526 21.777 21.777 0 0 1-13.134 4.012h-.013a21.776 21.776 0 0 1-13.134-4.012 12.986 12.986 0 0 1-5.347-10.526V126.2c0-3.807-3.133-7.127-6.875-11.091-6.1-6.46-13.663-14.479-13.663-29.57a39.025 39.025 0 0 1 39.026-39.026Z" transform="translate(-41.424 -46.513)" fill="url(#apa)"/></symbol><symbol viewBox="0 0 183.337 184.626" id="icon_schedule" xmlns="http://www.w3.org/2000/svg"><defs><linearGradient id="aqa" x1=".381" y1=".043" x2=".5" y2="1" gradientUnits="objectBoundingBox"><stop offset="0" stop-color="#0abcef"/><stop offset=".227" stop-color="#0abeeb"/><stop offset="1" stop-color="#0de4a2"/></linearGradient></defs><path d="M113.171 162.229a6.355 6.355 0 1 1-4.492 1.861 6.336 6.336 0 0 1 4.492-1.861Zm-22.2 0a6.355 6.355 0 1 1-4.492 1.861 6.336 6.336 0 0 1 4.49-1.861Zm-22.2 0a6.355 6.355 0 1 1-4.492 1.861 6.336 6.336 0 0 1 4.487-1.861Zm44.4-42.2a6.355 6.355 0 1 1-4.492 1.861 6.336 6.336 0 0 1 4.489-1.862Zm-22.2 0a6.355 6.355 0 1 1-4.492 1.861 6.336 6.336 0 0 1 4.486-1.862Zm-22.2 0a6.355 6.355 0 1 1-4.492 1.861 6.336 6.336 0 0 1 4.484-1.862Zm44.4 21.407a6.355 6.355 0 1 1-4.492 1.861 6.336 6.336 0 0 1 4.486-1.862Zm-22.2 0a6.355 6.355 0 1 1-4.501 1.864 6.336 6.336 0 0 1 4.492-1.865Zm-22.2 0a6.355 6.355 0 1 1-4.492 1.861 6.336 6.336 0 0 1 4.48-1.862Zm71.13.213a6.355 6.355 0 1 1-4.492 1.861 6.336 6.336 0 0 1 4.48-1.862Zm44.4-43.246a6.355 6.355 0 1 1-4.492 1.861 6.336 6.336 0 0 1 4.482-1.864Zm-22.2 0a6.355 6.355 0 1 1-4.492 1.861 6.336 6.336 0 0 1 4.479-1.864Zm-22.2 0a6.355 6.355 0 1 1-4.492 1.861 6.336 6.336 0 0 1 4.477-1.864Zm44.4 21.407a6.355 6.355 0 1 1-4.492 1.861 6.336 6.336 0 0 1 4.479-1.863Zm-22.2 0a6.355 6.355 0 1 1-4.492 1.861 6.336 6.336 0 0 1 4.476-1.863Zm-22.2 0a6.355 6.355 0 1 1-4.492 1.861 6.336 6.336 0 0 1 4.473-1.863Zm72.759 20.44a1.332 1.332 0 0 1-2.664 0V81.224c0-6.689-.666-11.467-2.937-14.467-2.2-2.917-6.107-4.285-12.646-4.285h-12.064a29.044 29.044 0 0 1 .16 3.074 25.582 25.582 0 0 1-3.836 13.941c-2.477 3.749-5.947 6.07-9.829 6.07v-2.665c2.93 0 5.624-1.861 7.612-4.872a22.891 22.891 0 0 0 3.389-12.473 27.294 27.294 0 0 0-.173-3.074h-7.542a29.048 29.048 0 0 1 .16 3.074 25.582 25.582 0 0 1-3.836 13.941c-2.477 3.749-5.947 6.07-9.829 6.07v-2.663c2.93 0 5.624-1.861 7.612-4.872a22.891 22.891 0 0 0 3.39-12.473 27.294 27.294 0 0 0-.173-3.074h-49.986a29.043 29.043 0 0 1 .16 3.074 25.582 25.582 0 0 1-3.836 13.941c-2.477 3.749-5.947 6.07-9.829 6.07V82.9c2.93 0 5.624-1.861 7.612-4.872a22.891 22.891 0 0 0 3.389-12.473 27.3 27.3 0 0 0-.173-3.074h-7.542a29.043 29.043 0 0 1 .16 3.074 25.582 25.582 0 0 1-3.836 13.941c-2.477 3.749-5.947 6.07-9.829 6.07V82.9c2.93 0 5.624-1.861 7.612-4.872a22.891 22.891 0 0 0 3.389-12.473 27.294 27.294 0 0 0-.173-3.074H67.551c-6.543 0-10.442 1.368-12.646 4.285-2.271 3-2.937 7.781-2.937 14.467v86.337c0 6.689.666 11.467 2.937 14.467 2.2 2.917 6.107 4.285 12.646 4.285h69.425a1.332 1.332 0 0 1 0 2.664H67.551c-7.459 0-12.017-1.7-14.771-5.348-2.687-3.556-3.476-8.82-3.476-16.072V81.23c0-7.249.789-12.516 3.476-16.072 2.75-3.639 7.308-5.348 14.771-5.348h15.094A22.019 22.019 0 0 1 87.2 49.9a11.288 11.288 0 0 1 8.547-4.362 10.042 10.042 0 0 1 5.111 1.428 10.031 10.031 0 0 1 5.108-1.428c3.882 0 7.352 2.321 9.829 6.07a23.346 23.346 0 0 1 3.27 8.2h26.465a22.018 22.018 0 0 1 4.552-9.909 11.288 11.288 0 0 1 8.547-4.362 10.042 10.042 0 0 1 5.111 1.428 10.031 10.031 0 0 1 5.108-1.428c3.882 0 7.352 2.321 9.829 6.07a23.346 23.346 0 0 1 3.27 8.2h12.469c7.459 0 12.017 1.7 14.77 5.348 2.687 3.556 3.476 8.824 3.476 16.072v59.026ZM56.03 89.734v2.664h-2.664v-2.664Zm152.888-.173h-1.052v2.664h1.052Zm-3.716 0v2.664h-2.664v-2.664Zm-5.328.007v2.664h-2.664v-2.664Zm-5.328.007v2.664h-2.664v-2.664Zm-5.328.007v2.664h-2.664v-2.664Zm-5.328.007v2.664h-2.664v-2.664Zm-5.328.007v2.664h-2.664v-2.664Zm-5.328.007v2.664h-2.664v-2.664Zm-5.328.007v2.664h-2.664V89.61Zm-5.328.007v2.664h-2.664v-2.664Zm-5.328.007v2.664h-2.664v-2.664Zm-5.328.007v2.664h-2.664v-2.664Zm-5.328.007v2.664h-2.664v-2.664Zm-5.328.007v2.664h-2.664v-2.664Zm-5.328.007v2.664h-2.664v-2.664Zm-5.328.007v2.664h-2.664v-2.664Zm-5.328.007v2.664h-2.664v-2.664Zm-5.328.007v2.664h-2.664v-2.664Zm-5.328.007v2.664h-2.664V89.68Zm-5.328.007v2.664h-2.664v-2.664Zm-5.328.007v2.664h-2.664v-2.664Zm-5.328.007v2.664h-2.664v-2.664Zm-5.328.007v2.664H90.65v-2.664Zm-5.314 0v2.664h-2.664v-2.664Zm-5.328.007v2.664h-2.664v-2.664Zm-5.328.007v2.664H74.68v-2.664Zm-5.328.007v2.664h-2.664v-2.664Zm-5.328.007V92.4h-2.664v-2.664Zm-5.328.007v2.664h-2.664v-2.664ZM190.794 191l4.961 24.836a1.332 1.332 0 0 1-2.607.546l-6.839-24.194a8.115 8.115 0 1 1 3.49-15.554l13.186-12.806a1.329 1.329 0 0 1 1.971 1.775l-11.348 14.458a8.116 8.116 0 0 1-1.316 9.753 8.223 8.223 0 0 1-1.5 1.186Zm-.383-10.778a5.45 5.45 0 1 0 1.6 3.856 5.441 5.441 0 0 0-1.6-3.856Zm18.573-33.334-9.2 15.933-1.439-.821 9.2-15.939a43.215 43.215 0 0 0-20.165-5.394v18.393h-1.658v-18.398a43.2 43.2 0 0 0-20.161 5.394l9.2 15.936-1.439.832-9.2-15.936a43.593 43.593 0 0 0-14.757 14.761l15.933 9.2-.826 1.439-15.939-9.2a43.215 43.215 0 0 0-5.394 20.165h18.393v1.658h-18.393a43.2 43.2 0 0 0 5.394 20.161l15.936-9.2.832 1.439-15.936 9.2a43.593 43.593 0 0 0 14.761 14.757l9.2-15.933 1.439.826-9.2 15.939a43.215 43.215 0 0 0 20.165 5.394V209.1h1.658v18.393a43.2 43.2 0 0 0 20.161-5.394l-9.2-15.936 1.439-.832 9.2 15.936a43.593 43.593 0 0 0 14.757-14.761l-15.933-9.2.826-1.439 15.939 9.2a43.215 43.215 0 0 0 5.394-20.165h-18.393v-1.658h18.393a43.212 43.212 0 0 0-5.248-19.9l-16.083 9.287-.832-1.439 16.093-9.29a43.568 43.568 0 0 0-14.917-15.021Zm-22.429-8.9a46.086 46.086 0 1 1-32.588 13.5 45.941 45.941 0 0 1 32.588-13.497ZM166.1 48.765a16.511 16.511 0 0 1 2.357 2.847 23.346 23.346 0 0 1 3.27 8.2h7.5a20.332 20.332 0 0 0-2.767-6.736c-1.988-3.01-4.682-4.872-7.612-4.872a7.111 7.111 0 0 0-2.747.559Zm-10.352 11.051a22.089 22.089 0 0 1 4.489-9.84 15.266 15.266 0 0 1 1.135-1.209 7.184 7.184 0 0 0-2.747-.559 8.717 8.717 0 0 0-6.529 3.426 19.092 19.092 0 0 0-3.849 8.181h7.5Zm7.988-9.6a11.758 11.758 0 0 0-1.468 1.472 19.126 19.126 0 0 0-3.8 8.125h10.542a20.332 20.332 0 0 0-2.767-6.736 13.256 13.256 0 0 0-2.5-2.86Zm-60.521-1.455a16.511 16.511 0 0 1 2.357 2.847 23.346 23.346 0 0 1 3.27 8.2h7.5a20.332 20.332 0 0 0-2.767-6.736c-1.988-3.01-4.682-4.872-7.612-4.872a7.112 7.112 0 0 0-2.747.559ZM92.867 59.816a22.089 22.089 0 0 1 4.489-9.84 15.271 15.271 0 0 1 1.135-1.209 7.184 7.184 0 0 0-2.747-.559 8.717 8.717 0 0 0-6.529 3.426 19.092 19.092 0 0 0-3.849 8.181h7.5Zm7.988-9.6a11.759 11.759 0 0 0-1.468 1.472 19.126 19.126 0 0 0-3.8 8.125h10.542a20.332 20.332 0 0 0-2.767-6.736 13.256 13.256 0 0 0-2.5-2.86Z" transform="translate(-49.305 -45.538)" fill="url(#aqa)"/></symbol><symbol viewBox="0 0 116.956 178.016" id="icon_tasks" xmlns="http://www.w3.org/2000/svg"><defs><linearGradient id="ara" x1=".381" y1=".043" x2=".5" y2="1" gradientUnits="objectBoundingBox"><stop offset="0" stop-color="#0abcef"/><stop offset=".227" stop-color="#0abeeb"/><stop offset="1" stop-color="#0de4a2"/></linearGradient></defs><path d="M271.816 33.277a.338.338 0 0 0-.055 0l-17.921.082-.006.006a3.963 3.963 0 0 0-2.761.7 3.567 3.567 0 0 0-.706 2.6v9.619a3.563 3.563 0 0 0 .706 2.6 3.959 3.959 0 0 0 2.761.7l.006.006 43.717.2v.01a3.709 3.709 0 0 0 2.731-.773 3.893 3.893 0 0 0 .733-2.734v-9.619a3.9 3.9 0 0 0-.733-2.734 3.707 3.707 0 0 0-2.731-.773v-.006l-17.573.07a1.2 1.2 0 0 1-.26-.027c-.049.055-.1.107-.153.159a5.429 5.429 0 0 1-7.673 0c-.027-.027-.055-.055-.082-.085Zm-25.664 110.058a1.223 1.223 0 0 1-1.729 1.729l-3.662-3.662-3.662 3.662a1.222 1.222 0 0 1-1.729-1.729l3.662-3.662-3.662-3.662a1.222 1.222 0 0 1 1.729-1.729l3.662 3.662 3.662-3.662a1.223 1.223 0 0 1 1.729 1.729l-3.662 3.662Zm-12.469-47.907a1.219 1.219 0 1 1 2.2-1.06l3.9 8.064 12.564-19.509a1.22 1.22 0 0 1 2.052 1.32l-13.74 21.336a1.2 1.2 0 0 1-.495.44 1.218 1.218 0 0 1-1.628-.568l-4.851-10.022Zm0-24.406a1.219 1.219 0 1 1 2.2-1.06l3.9 8.064 12.564-19.509a1.22 1.22 0 1 1 2.052 1.32l-13.74 21.336a1.2 1.2 0 0 1-.495.44 1.218 1.218 0 0 1-1.628-.568l-4.851-10.022Zm23.4 91.047a1.222 1.222 0 0 1 0-2.444h50.431a1.222 1.222 0 0 1 0 2.444Zm0-20.609a1.222 1.222 0 0 1 0-2.444h50.431a1.222 1.222 0 0 1 0 2.444Zm0-20.609a1.222 1.222 0 0 1 0-2.444h50.431a1.222 1.222 0 0 1 0 2.444Zm0-20.609a1.222 1.222 0 0 1 0-2.444h50.431a1.222 1.222 0 0 1 0 2.444Zm0-20.609a1.222 1.222 0 0 1 0-2.444h50.431a1.222 1.222 0 0 1 0 2.444ZM303.461 46.6h16.009a5.127 5.127 0 0 1 3.867 1.451 5.505 5.505 0 0 1 1.372 3.962V171.73a5.505 5.505 0 0 1-1.372 3.962 5.138 5.138 0 0 1-3.867 1.451h-87.693a5.127 5.127 0 0 1-3.867-1.451 5.505 5.505 0 0 1-1.372-3.962V52.013a5.505 5.505 0 0 1 1.372-3.962 5.138 5.138 0 0 1 3.867-1.451h16.152v-4.627h-24.784a3.6 3.6 0 0 0-2.7.907 4.053 4.053 0 0 0-.886 2.883v143.21a4.052 4.052 0 0 0 .886 2.883 3.606 3.606 0 0 0 2.7.907h104.9a3.6 3.6 0 0 0 2.7-.907 4.053 4.053 0 0 0 .886-2.883V45.764a4.052 4.052 0 0 0-.886-2.883 3.606 3.606 0 0 0-2.7-.907h-24.58v4.627Zm-55.113 2.444h-16.571a2.821 2.821 0 0 0-2.111.7 3.2 3.2 0 0 0-.684 2.272V171.73a3.2 3.2 0 0 0 .684 2.272 2.826 2.826 0 0 0 2.111.7h87.693a2.826 2.826 0 0 0 2.111-.7 3.2 3.2 0 0 0 .684-2.272V52.013a3.2 3.2 0 0 0-.684-2.272 2.826 2.826 0 0 0-2.111-.7h-16.412a4.61 4.61 0 0 1-1.011 1.662 5.9 5.9 0 0 1-4.487 1.527l-.006-.006-43.717-.2v.006a6.093 6.093 0 0 1-4.459-1.4 4.266 4.266 0 0 1-1.026-1.592Zm55.119-9.518h24.58a5.916 5.916 0 0 1 4.454 1.658 6.354 6.354 0 0 1 1.573 4.573v143.21a6.352 6.352 0 0 1-1.573 4.573 5.916 5.916 0 0 1-4.454 1.658h-104.9a5.916 5.916 0 0 1-4.454-1.658 6.354 6.354 0 0 1-1.573-4.573V45.758a6.352 6.352 0 0 1 1.573-4.573 5.916 5.916 0 0 1 4.454-1.658h24.782v-2.86a5.708 5.708 0 0 1 1.451-4.35 6.093 6.093 0 0 1 4.459-1.4v.006l10.63-.049a10.296 10.296 0 0 1-.088-.516 11.607 11.607 0 0 1-.125-1.692 11.485 11.485 0 1 1 22.97 0 11.892 11.892 0 0 1-.131 1.747c-.018.116-.036.235-.058.351l10.523-.043.006-.006a5.9 5.9 0 0 1 4.487 1.527 6.072 6.072 0 0 1 1.42 4.423v2.859Zm-22.454-8.739 3.522-.016c.055-.235.1-.477.141-.724a9.313 9.313 0 0 0 .1-1.383A9.041 9.041 0 1 0 266.795 30c.043.3.1.583.168.858l3.516-.016a5.426 5.426 0 1 1 10.538-.058Zm-3.167-3.372a2.98 2.98 0 1 0 .873 2.108 2.972 2.972 0 0 0-.873-2.108Z" transform="translate(-217.118 -17.183)" fill="url(#ara)"/></symbol><symbol viewBox="0 0 235.283 243.4" id="icon_uxprocess" xmlns="http://www.w3.org/2000/svg"><defs><linearGradient id="asa" x1=".381" y1=".043" x2=".5" y2="1" gradientUnits="objectBoundingBox"><stop offset="0" stop-color="#0abcef"/><stop offset=".227" stop-color="#0abeeb"/><stop offset="1" stop-color="#0de4a2"/></linearGradient></defs><path d="M259.07 117.973v-15.954c0-4.048-.682-7.168-2.309-9.2-1.56-1.943-4.128-2.982-7.984-2.982v-.009l-21.861-.084-44.963 31.531a1.773 1.773 0 0 1-2.069-.027l-44.927-31.5-21.861.084v.009c-3.856 0-6.428 1.039-7.984 2.982-1.627 2.033-2.309 5.154-2.309 9.2V116.7a59.156 59.156 0 0 1 19.713 3.1c5.671 2.113 9.179 5.234 9.179 8.872 0 .111 0 .227-.013.339l-.3 14.93c0 .107 0 .214-.009.321l-.3 14.947c0 .084 0 .165-.009.246l-.3 15.019v.12l-.317 15.861a1.743 1.743 0 0 1-.236.852c-1.806 5.675-13.289 10.1-27.421 10.392v24.113c0 4.048.673 7.177 2.292 9.215 1.547 1.943 4.1 2.982 7.957 2.982v.009l30.648.116c.205-4.124 1.217-8.475 3.535-11.679a11.6 11.6 0 0 1 9.906-4.966h47.745a11.6 11.6 0 0 1 9.906 4.966c2.313 3.205 3.33 7.547 3.535 11.671l30.3-.125c.053 0 .107-.009.165-.009 3.856 0 6.428-1.039 7.984-2.982 1.627-2.033 2.309-5.154 2.309-9.2v-31.052h-38.883a1.782 1.782 0 0 1-1.783-1.783v-56.616a1.782 1.782 0 0 1 1.783-1.783h13.124v-14.823a1.782 1.782 0 0 1 1.783-1.783h23.975Zm-77.9 174.27 11.655-18.643H169.51Zm8.947-7.592-7.423 11.862a1.783 1.783 0 0 1-3.04.027l-14.814-23.685a1.752 1.752 0 0 1-.33-1.034 1.782 1.782 0 0 1 1.783-1.783H173v-14.827a1.783 1.783 0 1 1 3.566 0v14.827h8.889v-14.827a1.783 1.783 0 1 1 3.566 0v14.827h7.008a1.778 1.778 0 0 1 1.511 2.719l-7.436 11.889Zm-9.174-52.524a10.012 10.012 0 0 1 9.214 6.121l24.6-.1c-.187-3.472-1.016-7.057-2.862-9.607a8.212 8.212 0 0 0-7.021-3.478h-47.748a8.2 8.2 0 0 0-7.021 3.478c-1.846 2.555-2.675 6.143-2.862 9.616l24.479.094a10 10 0 0 1 9.214-6.125Zm9.986 9.669v.321a9.995 9.995 0 0 1-19.989 0v-.321l-57.909-.223v.009c-5.033 0-8.493-1.507-10.743-4.333-2.171-2.733-3.072-6.593-3.072-11.43v-24.131a57.281 57.281 0 0 1-17.881-3.076c-5.336-1.989-8.756-4.872-9.143-8.234a1.748 1.748 0 0 1-.031-.379v-.263h.009l.3-15.073v-.2h.009l.3-15.094v-.174l.3-15.13v-.138l.3-15.17v-.1c0-.1 0-.2.009-.3v-.027a1.524 1.524 0 0 1 .031-.29c.727-5.871 11.751-10.628 25.8-11.279V102c0-4.841.914-8.7 3.1-11.43 2.26-2.818 5.728-4.32 10.757-4.32v.009l21.358-.08L179.906 54.3a1.773 1.773 0 0 1 2.069.027l45.431 31.861 21.358.08v-.009c5.028 0 8.5 1.5 10.757 4.32 2.189 2.728 3.1 6.589 3.1 11.43v15.955h43.037a1.782 1.782 0 0 1 1.783 1.783v56.616a1.782 1.782 0 0 1-1.783 1.783h-13.12v14.823a1.782 1.782 0 0 1-1.783 1.783h-28.13V225.8c0 4.841-.914 8.7-3.1 11.43-2.26 2.818-5.728 4.32-10.757 4.32h-.151l-57.695.236Zm-5.444-4.222a6.424 6.424 0 1 0 1.882 4.542 6.4 6.4 0 0 0-1.884-4.541Zm-4.554-179.636L138.353 87.8l42.578 29.859L223.509 87.8Zm-104.1 76.579-.187 9.429h.009c0 1.993 2.616 3.963 6.851 5.541a55.8 55.8 0 0 0 18.728 2.866c14.127 0 25.58-3.762 25.58-8.407h.009l.187-9.446c-4.98 3.669-14.52 6.152-25.473 6.152a59.346 59.346 0 0 1-19.972-3.1 22.049 22.049 0 0 1-5.737-3.032Zm-.3 15.268-.187 9.429c0 1.993 2.616 3.963 6.851 5.541a55.8 55.8 0 0 0 18.728 2.866c14.127 0 25.58-3.762 25.58-8.408h.009l.187-9.446c-4.98 3.669-14.52 6.152-25.473 6.152a59.347 59.347 0 0 1-19.972-3.1 22.049 22.049 0 0 1-5.737-3.032Zm-.3 15.268-.187 9.424c0 1.993 2.616 3.963 6.851 5.541a55.8 55.8 0 0 0 18.728 2.866c14.127 0 25.58-3.762 25.58-8.407h.013l.187-9.446c-4.98 3.669-14.52 6.152-25.477 6.152a59.346 59.346 0 0 1-19.972-3.1 22.021 22.021 0 0 1-5.733-3.032Zm-.3 15.268-.187 9.424c0 1.993 2.616 3.963 6.851 5.541a55.8 55.8 0 0 0 18.728 2.866c14.127 0 25.58-3.762 25.58-8.407h.013l.187-9.446c-4.98 3.669-14.52 6.152-25.477 6.152a59.346 59.346 0 0 1-19.972-3.1 22.18 22.18 0 0 1-5.733-3.026Zm45.346-57.187a55.519 55.519 0 0 0-18.474-2.866v6.638a1.783 1.783 0 0 1-3.566 0v-6.567c-12.562.535-22.272 4.061-22.272 8.336 0 1.993 2.616 3.963 6.851 5.541a55.8 55.8 0 0 0 18.728 2.866c14.127 0 25.58-3.762 25.58-8.407 0-1.993-2.616-3.963-6.851-5.541Zm171.279 51.458h11.341v-53.05h-67.028v13.039h53.888a1.782 1.782 0 0 1 1.783 1.783v38.227Zm-3.566-36.444h-67.028V191.2h67.016Z" transform="translate(-72.162 -53.979)" fill="url(#asa)"/></symbol><symbol viewBox="0 0 32 32" id="instagram" xmlns="http://www.w3.org/2000/svg"><path fill="#e4405f" d="M16 0c-4.346 0-4.89.02-6.596.096C7.7.176 6.54.444 5.52.84a7.815 7.815 0 0 0-2.834 1.846A7.773 7.773 0 0 0 .84 5.52C.444 6.54.174 7.7.096 9.404.016 11.11 0 11.654 0 16s.02 4.89.096 6.596c.08 1.704.348 2.866.744 3.884a7.815 7.815 0 0 0 1.846 2.834c.888.89 1.78 1.44 2.834 1.846 1.02.396 2.18.666 3.884.744 1.706.08 2.25.096 6.596.096s4.89-.02 6.596-.096c1.704-.08 2.866-.348 3.884-.744a7.815 7.815 0 0 0 2.834-1.846 7.773 7.773 0 0 0 1.846-2.834c.396-1.02.666-2.18.744-3.884.08-1.706.096-2.25.096-6.596s-.02-4.89-.096-6.596c-.08-1.704-.348-2.866-.744-3.884a7.815 7.815 0 0 0-1.846-2.834A7.773 7.773 0 0 0 26.48.84C25.46.444 24.3.174 22.596.096 20.89.016 20.346 0 16 0zm0 2.88c4.272 0 4.78.02 6.466.096 1.56.072 2.406.332 2.97.552.748.29 1.28.636 1.84 1.196s.906 1.092 1.196 1.84c.22.564.48 1.41.552 2.97.076 1.688.094 2.194.094 6.466s-.02 4.78-.1 6.466c-.08 1.56-.34 2.406-.56 2.97-.3.748-.64 1.28-1.2 1.84s-1.1.906-1.84 1.196c-.56.22-1.42.48-2.98.552-1.7.076-2.2.094-6.48.094s-4.78-.02-6.48-.1c-1.56-.08-2.42-.34-2.98-.56-.76-.3-1.28-.64-1.84-1.2s-.92-1.1-1.2-1.84c-.22-.56-.48-1.42-.56-2.98-.06-1.68-.08-2.2-.08-6.46s.02-4.78.08-6.48c.08-1.56.34-2.42.56-2.98.28-.76.64-1.28 1.2-1.84s1.08-.92 1.84-1.2c.56-.22 1.4-.48 2.96-.56 1.7-.06 2.2-.08 6.48-.08zm0 4.904A8.215 8.215 0 0 0 7.784 16c0 4.54 3.68 8.216 8.216 8.216 4.54 0 8.216-3.68 8.216-8.216 0-4.54-3.68-8.216-8.216-8.216zm0 13.55a5.334 5.334 0 1 1 0-10.668 5.334 5.334 0 0 1 0 10.668zM26.46 7.46a1.92 1.92 0 1 1-3.841-.001 1.92 1.92 0 0 1 3.841.001z"/></symbol><symbol viewBox="0 0 32 32" id="linkedin" xmlns="http://www.w3.org/2000/svg"><path fill="#0077b5" d="M27.264 27.27h-4.74v-7.426c0-1.772-.036-4.05-2.468-4.05-2.47 0-2.848 1.928-2.848 3.92v7.556h-4.74V12h4.552v2.08h.06c.636-1.2 2.184-2.466 4.494-2.466 4.8 0 5.69 3.16 5.69 7.274v8.376zM7.116 9.91a2.751 2.751 0 0 1-2.752-2.754A2.753 2.753 0 1 1 7.116 9.91zm2.376 17.36H4.74V12h4.752v15.27zM29.632 0H2.36C1.056 0 0 1.032 0 2.306v27.388C0 30.968 1.056 32 2.36 32h27.27c1.304 0 2.37-1.032 2.37-2.306V2.306C32 1.032 30.934 0 29.63 0z"/></symbol><symbol viewBox="0 0 100 100" id="navigation" xmlns="http://www.w3.org/2000/svg"><path d="M16 21c-3.313 0-6 2.688-6 6s2.688 6 6 6h68c3.313 0 6-2.688 6-6s-2.688-6-6-6zm0 23c-3.313 0-6 2.688-6 6s2.688 6 6 6h68c3.313 0 6-2.688 6-6s-2.688-6-6-6zm0 23c-3.313 0-6 2.688-6 6s2.688 6 6 6h68c3.313 0 6-2.688 6-6s-2.688-6-6-6z"/></symbol><symbol viewBox="0 0 32 32" id="paypal" xmlns="http://www.w3.org/2000/svg"><path fill="#00457c" d="M9.226 32h-4.14c-.886 0-1.448-.708-1.248-1.572l.2-.9H6.8c.888 0 1.78-.71 1.976-1.574l1.42-6.124c.2-.864 1.088-1.572 1.974-1.572h1.176c5.052 0 8.98-1.04 11.788-3.12s4.212-4.8 4.212-8.18c0-1.5-.26-2.74-.784-3.72 0-.02-.02-.04-.02-.06l.18.1c1 .62 1.76 1.42 2.28 2.42.54 1 .8 2.24.8 3.72 0 3.38-1.4 6.1-4.22 8.18-2.8 2.06-6.74 3.1-11.78 3.1h-1.2c-.88 0-1.78.7-1.98 1.58l-1.42 6.14c-.2.86-1.08 1.56-1.96 1.56zm-3.57-3.594h-4.14c-.884 0-1.446-.706-1.248-1.572L6.1 1.574C6.3.706 7.186 0 8.072 0h8.62c1.86 0 3.48.13 4.866.384 1.38.254 2.56.692 3.58 1.32.98.62 1.76 1.43 2.26 2.426.52.996.78 2.24.78 3.728 0 3.38-1.4 6.1-4.22 8.16-2.8 2.08-6.74 3.1-11.78 3.1H11c-.88 0-1.772.7-1.97 1.56l-1.414 6.12c-.2.86-1.09 1.56-1.98 1.56zm9.928-23.16h-1.352c-.888 0-1.776.706-1.974 1.57l-1.24 5.36c-.2.866.36 1.572 1.24 1.572h1.02c2.22 0 3.96-.456 5.2-1.36 1.24-.914 1.86-2.206 1.86-3.884 0-1.106-.4-1.926-1.2-2.452-.8-.54-2-.808-3.58-.808z"/></symbol><symbol viewBox="0 0 32 32" id="rss" xmlns="http://www.w3.org/2000/svg"><path fill="orange" d="M25.6 32C25.6 17.956 14.044 6.4 0 6.4V0c17.554 0 32 14.446 32 32h-6.4zM4.388 23.22c2.42 0 4.39 1.97 4.39 4.392 0 2.42-1.98 4.388-4.4 4.388A4.384 4.384 0 0 1 0 27.612c0-2.42 1.966-4.39 4.388-4.39zM21.212 32h-6.22c0-8.226-6.766-14.994-14.992-14.994v-6.22c11.636 0 21.212 9.58 21.212 21.214z"/></symbol><symbol viewBox="0 0 32 32" id="spotify" xmlns="http://www.w3.org/2000/svg"><path fill="#1ed760" d="M16 0C7.2 0 0 7.2 0 16s7.2 16 16 16 16-7.2 16-16S24.88 0 16 0zm7.36 23.12c-.32.48-.88.64-1.36.32-3.76-2.32-8.48-2.8-14.08-1.52-.56.16-1.04-.24-1.2-.72-.16-.56.24-1.04.72-1.2 6.08-1.36 11.36-.8 15.52 1.76.56.24.64.88.4 1.36zm1.92-4.4c-.4.56-1.12.8-1.68.4-4.32-2.64-10.88-3.44-15.92-1.84-.64.16-1.36-.16-1.52-.8s.16-1.36.8-1.52c5.84-1.76 13.04-.88 18 2.16.48.24.72 1.04.32 1.6zm.16-4.48c-5.12-3.04-13.68-3.36-18.56-1.84-.8.24-1.6-.24-1.84-.96-.24-.8.24-1.6.96-1.84 5.68-1.68 15.04-1.36 20.96 2.16.72.4.96 1.36.56 2.08-.4.56-1.36.8-2.08.4z"/></symbol><symbol viewBox="0 0 100 100" id="tags" xmlns="http://www.w3.org/2000/svg"><path d="M93.398 11.5c-1.102-1.102-2.5-1.602-4-1.5l-3.3.2c-.2-.302-.302-.5-.602-.7-1.2-1.2-2.801-1.898-4.602-1.7L55.3 9.603c-2.898.199-6.8 2-8.898 4L6.8 53.2c-2.399 2.398-2.399 6.398 0 8.898l25.8 25.801c1.2 1.2 2.801 1.8 4.399 1.8.898 0 1.8-.198 2.602-.6l1.601 1.6c.899.9 2.2 1.4 3.602 1.4h.601c1.5-.2 3-.9 4.102-2l39.602-39.603c2.102-2.101 3.8-6 4-8.898l1.89-25.496c.102-1.703-.5-3.402-1.601-4.602zm-58.297 74L9.3 59.699a2.834 2.834 0 0 1 0-4L48.8 16c1.5-1.5 4.602-2.898 6.7-3.102l25.601-1.8h.2c.699 0 1.199.199 1.601.699.398.398.602 1.101.602 1.699l-1.801 25.602c-.102 2.102-1.602 5.2-3.102 6.7L39.101 85.5c-1 1.102-2.902 1.102-4 0zm54.699-44c-.102 2.102-1.602 5.2-3.102 6.7L47.1 87.8a3.48 3.48 0 0 1-2 1c-.3 0-1 0-1.398-.398l-1.3-1.301L81.1 48.403c2.102-2.102 3.801-6 4-8.898L87 13.802v-.2l2.601-.199c.5 0 1 .102 1.399.5.5.5.699 1.2.601 1.899z"/><path d="M70.5 33c4.398 0 8-3.602 8-8s-3.602-8-8-8-8 3.602-8 8 3.602 8 8 8zm0-12.602c2.5 0 4.602 2 4.602 4.602s-2 4.601-4.602 4.601-4.602-2-4.602-4.601S68 20.398 70.5 20.398z"/></symbol><symbol viewBox="0 0 32 32" id="twitter" xmlns="http://www.w3.org/2000/svg"><path fill="#1da1f2" d="M32 6.076c-1.18.52-2.44.874-3.77 1.034a6.598 6.598 0 0 0 2.886-3.632 13.557 13.557 0 0 1-4.17 1.58 6.565 6.565 0 0 0-11.356 4.48c0 .52.06 1.02.17 1.5-5.456-.26-10.294-2.88-13.532-6.84A6.444 6.444 0 0 0 1.34 7.5c0 2.28 1.16 4.286 2.92 5.464a6.556 6.556 0 0 1-2.974-.82v.08a6.57 6.57 0 0 0 5.266 6.44 6.673 6.673 0 0 1-1.73.228c-.42 0-.82-.04-1.22-.116a6.58 6.58 0 0 0 6.14 4.56 13.156 13.156 0 0 1-8.14 2.808c-.52 0-1.04-.03-1.56-.09a18.665 18.665 0 0 0 10.08 2.948c12.08 0 18.68-10 18.68-18.66 0-.28 0-.56-.02-.84 1.28-.92 2.4-2.08 3.28-3.4z"/></symbol><symbol viewBox="0 0 32 32" id="wordpressdotcom" xmlns="http://www.w3.org/2000/svg"><path fill="#21759b" d="M28.624 9.1c1.12 2.048 1.76 4.4 1.76 6.9 0 5.306-2.876 9.94-7.152 12.434l4.394-12.704c.82-2.052 1.094-3.694 1.094-5.152 0-.54-.036-1.04-.096-1.48zm-10.64.138c.864-.04 1.644-.14 1.644-.14.776-.1.684-1.24-.09-1.2 0 0-2.34.18-3.84.18-1.42 0-3.8-.2-3.8-.2-.78-.04-.88 1.14-.1 1.18 0 0 .72.08 1.5.12l2.24 6.14-3.16 9.44L7.14 9.2c.864-.04 1.644-.134 1.644-.134.78-.1.688-1.24-.088-1.194 0 0-2.328.184-3.832.184-.266 0-.584-.01-.92-.02C6.548 4.2 10.98 1.62 16 1.62c3.744 0 7.154 1.43 9.714 3.776-.06-.004-.12-.012-.186-.012-1.414 0-2.416 1.23-2.416 2.552 0 1.186.684 2.19 1.412 3.374.548.96 1.188 2.19 1.188 3.968 0 1.22-.474 2.66-1.096 4.64l-1.434 4.78-5.2-15.48zM16 30.38c-1.412 0-2.774-.206-4.064-.584l4.316-12.54 4.42 12.114c.032.07.066.136.104.2a14.4 14.4 0 0 1-4.776.814zM1.614 16c0-2.086.448-4.066 1.246-5.854l6.86 18.8C4.926 26.614 1.616 21.694 1.616 16zM16 0C7.18 0 0 7.18 0 16s7.18 16 16 16 16-7.18 16-16S24.82 0 16 0z"/></symbol><symbol viewBox="0 0 32 32" id="youtube" xmlns="http://www.w3.org/2000/svg"><path fill="#cd201f" d="M0 14.69v2.52c0 2.59.32 5.18.32 5.18s.312 2.2 1.272 3.174c1.216 1.274 2.816 1.234 3.528 1.368 2.56.246 10.88.32 10.88.32s6.724-.008 11.2-.332c.628-.076 1.992-.08 3.208-1.356.96-.972 1.272-3.176 1.272-3.176s.32-2.588.32-5.18v-2.516c0-2.592-.32-5.18-.32-5.18s-.312-2.204-1.272-3.176c-1.216-1.276-2.58-1.28-3.208-1.356-4.476-.324-11.2-.332-11.2-.332s-8.32.072-10.88.32c-.712.134-2.312.094-3.528 1.368C.632 7.31.32 9.51.32 9.51S0 12.102 0 14.69zm12.696 5.46v-8.99l8.646 4.51-8.64 4.48z"/></symbol></svg>